<?xml version='1.0' encoding='utf-8'?>
<svg xmlns="http://www.w3.org/2000/svg" version="1.1" x="0px" y="0px" viewBox="0 0 500 500" style="enable-background:new 0 0 500 500;" xml:space="preserve" id="svg16"><defs id="defs16">
	

	

		
		
		
		
		
		
		
		
		
		
		
		
		
		
		
		
	</defs>

<path d="m 387.294,147.179 c -0.539,-3.025 -1.582,-6 -3.166,-8.685 -1.571,-2.694 -3.637,-5.065 -5.87,-7.166 -2.238,-2.104 -4.625,-3.985 -6.979,-5.799 -2.35,-1.8 -4.694,-3.617 -6.699,-5.552 -2.007,-1.97 -3.763,-4.248 -5.414,-6.623 -1.638,-2.389 -3.136,-4.906 -4.545,-7.494 -1.429,-2.577 -2.811,-5.202 -4.193,-7.845 -1.377,-2.646 -2.799,-5.29 -4.356,-7.89 l -1.212,-1.938 c -0.488,-0.641 -0.934,-1.317 -1.463,-1.915 -0.57,-0.559 -1.087,-1.175 -1.701,-1.673 -0.627,-0.479 -1.194,-1.041 -1.869,-1.441 -2.582,-1.781 -5.468,-2.945 -8.387,-3.773 -2.46,-0.67 -4.965,-1.077 -7.487,-1.237 -0.099,-0.531 -0.204,-1.063 -0.318,-1.596 -0.852,-4.177 -2.163,-8.423 -4.334,-12.311 -2.16,-3.896 -5.245,-7.251 -8.691,-9.981 -3.394,-2.854 -7.432,-4.657 -11.415,-6.222 -1.03,-0.33 -2.063,-0.637 -3.076,-0.98 l -1.521,-0.504 -1.553,-0.393 c -1.039,-0.244 -2.058,-0.55 -3.085,-0.828 -1.045,-0.201 -2.086,-0.409 -3.125,-0.646 l -1.558,-0.372 -1.579,-0.257 c -1.053,-0.184 -2.108,-0.419 -3.173,-0.572 l -3.218,-0.376 c -0.54,-0.082 -1.079,-0.084 -1.619,-0.096 -0.54,-0.009 -1.082,-0.034 -1.624,-0.029 -0.542,-0.002 -1.085,-0.003 -1.626,0.013 l -1.615,0.152 c -1.074,0.128 -2.156,0.216 -3.21,0.462 -1.058,0.217 -2.121,0.417 -3.165,0.689 -1.038,0.299 -2.075,0.595 -3.102,0.915 -2.039,0.695 -4.046,1.477 -5.963,2.45 -1.89,0.927 -3.71,2.003 -5.382,3.302 -1.673,-1.299 -3.492,-2.376 -5.382,-3.302 -1.917,-0.972 -3.924,-1.754 -5.963,-2.45 -1.027,-0.32 -2.064,-0.616 -3.102,-0.915 -1.044,-0.272 -2.107,-0.472 -3.165,-0.689 -1.054,-0.246 -2.137,-0.334 -3.21,-0.462 l -1.615,-0.152 c -0.542,-0.016 -1.085,-0.015 -1.626,-0.013 -0.542,-0.004 -1.084,0.02 -1.624,0.029 -0.54,0.012 -1.079,0.014 -1.619,0.096 l -3.218,0.376 c -1.065,0.153 -2.12,0.388 -3.173,0.572 l -1.579,0.257 -1.558,0.372 c -1.039,0.237 -2.081,0.445 -3.125,0.646 -1.027,0.278 -2.045,0.584 -3.085,0.828 l -1.553,0.393 -1.521,0.504 c -1.013,0.344 -2.046,0.651 -3.076,0.98 -3.982,1.565 -8.021,3.368 -11.415,6.222 -3.445,2.73 -6.531,6.085 -8.691,9.981 -2.171,3.889 -3.481,8.135 -4.334,12.311 -0.114,0.533 -0.219,1.065 -0.318,1.596 -2.522,0.16 -5.026,0.567 -7.487,1.237 -2.919,0.827 -5.805,1.992 -8.387,3.773 -0.674,0.399 -1.242,0.962 -1.869,1.441 -0.614,0.498 -1.131,1.114 -1.701,1.673 -0.529,0.599 -0.975,1.275 -1.463,1.915 l -1.212,1.938 c -1.557,2.6 -2.979,5.244 -4.356,7.89 -1.382,2.643 -2.764,5.268 -4.193,7.845 -1.41,2.588 -2.908,5.105 -4.545,7.494 -1.651,2.375 -3.408,4.653 -5.414,6.623 -2.005,1.936 -4.349,3.753 -6.699,5.552 -2.355,1.814 -4.741,3.696 -6.979,5.799 -2.232,2.102 -4.299,4.473 -5.87,7.166 -1.583,2.685 -2.627,5.659 -3.166,8.685 -0.477,3.04 -0.55,6.088 -0.261,9.129 0.342,3.036 1.251,6.038 2.805,8.691 1.535,2.672 3.671,4.882 5.745,7.025 2.101,2.127 4.177,4.229 5.933,6.559 1.75,2.333 3.143,4.882 4.251,7.543 2.152,5.361 2.705,11.269 3.192,17.124 0.424,5.879 0.567,11.805 0.674,17.753 l 0.153,8.951 c 0.075,3 0.152,5.999 0.45,9.087 0.076,0.773 0.173,1.556 0.311,2.361 0.148,0.812 0.297,1.621 0.669,2.565 0.186,0.462 0.415,0.994 0.964,1.618 0.266,0.302 0.703,0.658 1.28,0.879 0.29,0.098 0.631,0.175 0.93,0.18 0.286,0.005 0.664,-0.027 0.79,-0.082 0.344,-0.096 0.765,-0.233 1.025,-0.366 l 0.669,-0.384 c 0.439,-0.263 0.732,-0.519 1.103,-0.782 2.558,-2.106 4.564,-4.352 6.539,-6.691 0.065,-0.079 0.126,-0.161 0.192,-0.241 1.184,3.5 2.434,6.974 3.76,10.419 0.813,2.128 1.65,4.248 2.527,6.353 0.872,2.108 1.749,4.216 2.719,6.3 0.534,1.098 0.841,1.964 1.17,2.959 0.271,1.043 0.556,2.068 0.754,3.168 0.24,1.072 0.439,2.166 0.614,3.274 0.196,1.097 0.357,2.21 0.511,3.325 0.62,4.458 1.208,8.953 1.869,13.448 1.336,8.993 3.034,17.973 4.793,26.922 0.864,4.485 2.106,8.905 2.984,13.32 0.905,4.432 1.413,8.935 1.846,13.433 0.761,9.017 0.906,18.057 1.375,27.158 0.397,9.149 1.294,18.218 2.171,27.242 l 1.37,13.528 c 0.217,2.252 0.42,4.503 0.595,6.752 0.179,2.247 0.345,4.493 0.425,6.723 0.031,1.111 0.061,2.228 0.033,3.311 l -0.011,0.819 -0.067,0.777 -0.068,0.783 -0.133,0.818 c -0.362,2.182 -0.878,4.372 -1.38,6.598 -0.517,2.219 -0.975,4.501 -1.174,6.822 -0.138,1.486 -0.109,2.991 0.072,4.469 -0.423,0.608 -0.827,1.234 -1.163,1.907 -0.587,1.131 -1.065,2.275 -1.31,3.801 l -0.045,0.286 -0.006,0.365 c 0,0.242 0.006,0.497 0.023,0.73 0.063,0.357 0.117,0.719 0.2,1.077 0.193,0.712 0.445,1.42 0.798,2.082 0.688,1.34 1.747,2.443 2.894,3.262 1.162,0.81 2.412,1.362 3.666,1.73 1.253,0.379 2.51,0.6 3.76,0.693 2.188,0.144 4.343,-0.01 6.429,-0.553 0.067,0.17 0.143,0.341 0.233,0.516 0.096,0.177 0.227,0.369 0.345,0.543 l 0.411,0.393 c 0.139,0.124 0.277,0.26 0.416,0.364 l 0.422,0.255 c 0.283,0.16 0.554,0.351 0.836,0.465 0.561,0.263 1.109,0.527 1.675,0.718 1.112,0.443 2.235,0.797 3.368,1.119 2.262,0.653 4.571,1.15 6.962,1.473 2.386,0.307 4.895,0.326 7.362,-0.294 2.421,-0.591 4.787,-1.748 6.806,-3.435 0.239,-0.209 0.464,-0.461 0.634,-0.73 0.063,-0.111 0.107,-0.202 0.145,-0.29 0.542,0.036 1.082,0.042 1.613,0.043 1.25,-0.017 2.488,-0.124 3.71,-0.293 2.449,-0.33 4.85,-0.878 7.218,-1.676 1.185,-0.445 2.345,-0.884 3.535,-1.601 0.294,-0.164 0.625,-0.404 0.929,-0.606 0.139,-0.081 0.353,-0.275 0.532,-0.436 l 0.273,-0.255 c 0.088,-0.088 0.164,-0.141 0.321,-0.371 0.129,-0.186 0.262,-0.403 0.341,-0.589 0.06,-0.164 0.113,-0.333 0.158,-0.502 0.096,-0.352 0.082,-0.563 0.111,-0.851 10e-4,-0.242 -0.016,-0.455 -0.03,-0.682 l -0.091,-0.594 c -0.171,-0.786 -0.404,-1.504 -0.678,-2.179 1.219,-0.235 2.399,-0.659 3.528,-1.234 1.465,-0.73 2.841,-1.759 3.956,-3.114 1.117,-1.346 1.923,-3.061 2.188,-4.865 0.284,-1.794 0.109,-3.56 -0.416,-5.159 -1.041,-3.223 -3.085,-5.691 -4.56,-8.345 -0.742,-1.327 -1.42,-2.69 -1.845,-4.1 -0.089,-0.353 -0.202,-0.704 -0.27,-1.053 -0.038,-0.352 -0.124,-0.705 -0.117,-1.045 -0.043,-0.649 0.078,-1.411 0.159,-2.149 0.189,-1.502 0.459,-3.011 0.642,-4.524 0.198,-1.512 0.339,-3.029 0.486,-4.545 0.296,-3.034 0.616,-6.067 0.726,-9.114 0.147,-5.909 0.062,-11.834 -0.76,-17.812 1.522,-0.198 3.029,-0.482 4.527,-0.807 -0.737,0.634 -1.349,1.429 -1.822,2.274 -0.86,1.569 -1.24,3.366 -1.24,5.111 -0.035,1.762 0.434,3.445 1.078,4.999 0.362,0.763 0.796,1.49 1.269,2.181 0.395,0.484 0.821,0.942 1.279,1.375 -0.66,1.298 -1.148,2.691 -1.281,4.284 -0.025,0.258 -0.046,0.521 -0.025,0.829 l 0.021,0.445 c 0.032,0.184 0.076,0.378 0.127,0.565 l 0.081,0.279 0.089,0.188 0.231,0.476 c 0.161,0.275 0.422,0.721 0.583,0.996 0.576,0.773 1.274,1.446 2.05,1.924 1.785,1.121 3.733,1.585 5.605,1.707 1.677,0.09 3.329,-0.042 4.925,-0.483 0.008,0.017 0.012,0.033 0.02,0.049 0.069,0.121 0.129,0.236 0.21,0.355 0.096,0.115 0.197,0.266 0.301,0.334 0.205,0.145 0.42,0.33 0.616,0.417 0.399,0.214 0.79,0.372 1.179,0.511 0.776,0.283 1.551,0.491 2.325,0.707 1.558,0.382 3.125,0.718 4.749,0.947 1.621,0.206 3.309,0.272 4.999,-0.027 1.658,-0.302 3.317,-0.925 4.819,-1.924 0.196,-0.14 0.383,-0.314 0.529,-0.505 0.101,-0.145 0.153,-0.25 0.22,-0.38 0.352,0.023 0.703,0.035 1.052,0.044 0.9,0.005 1.795,-0.047 2.679,-0.145 1.773,-0.185 3.512,-0.521 5.241,-1.045 0.865,-0.277 1.709,-0.577 2.62,-1.092 0.209,-0.106 0.491,-0.295 0.756,-0.492 0.089,-0.045 0.378,-0.323 0.547,-0.546 0.121,-0.192 0.267,-0.433 0.322,-0.605 0.272,-0.743 0.269,-1.294 0.275,-1.831 -0.027,-0.945 -0.189,-1.816 -0.438,-2.639 0.674,0.464 1.41,0.83 2.194,1.11 1.221,0.428 2.598,0.625 4.032,0.364 1.431,-0.252 2.824,-1.139 3.741,-2.321 0.032,-0.044 0.052,-0.092 0.083,-0.136 0.038,0.031 0.075,0.061 0.115,0.093 0.167,0.139 0.314,0.23 0.45,0.301 0.284,0.17 0.577,0.312 0.837,0.406 0.272,0.11 0.539,0.219 0.798,0.282 2.084,0.607 4.099,0.697 6.109,0.36 2.003,-0.347 3.908,-0.869 5.781,-1.329 0.478,-0.142 0.945,-0.355 1.344,-0.695 0.407,-0.337 0.68,-0.813 0.89,-1.305 0.391,-1.01 0.458,-2.114 0.378,-3.175 -0.185,-2.133 -1.145,-4.074 -2.566,-5.585 -0.722,-0.751 -1.553,-1.406 -2.476,-1.933 -0.924,-0.502 -1.961,-0.97 -3.132,-0.892 -1.132,0.105 -2.048,0.653 -2.882,1.221 -0.818,0.598 -1.599,1.243 -2.318,1.954 -0.679,0.655 -1.297,1.366 -1.857,2.124 0.216,-0.941 0.541,-1.904 0.604,-2.901 0.091,-1.259 -0.23,-2.514 -0.721,-3.686 -0.265,-0.582 -0.564,-1.149 -0.972,-1.659 -0.237,-0.313 -0.514,-0.599 -0.817,-0.862 l 0.019,-0.089 c 0.113,-0.6 0.247,-1.191 0.403,-1.774 0.156,-0.583 0.331,-1.158 0.529,-1.727 0.169,-0.577 0.354,-1.149 0.556,-1.716 0.388,-1.139 0.917,-2.246 1.344,-3.381 0.442,-1.131 0.935,-2.257 1.335,-3.408 0.382,-1.153 0.683,-2.324 0.997,-3.495 l 0.466,-1.758 0.389,-1.77 c 0.267,-1.179 0.466,-2.371 0.645,-3.565 0.165,-1.197 0.252,-2.4 0.319,-3.608 0.073,-1.206 0.126,-2.413 0.136,-3.624 -0.027,-1.559 -0.09,-3.119 -0.233,-4.684 0.218,-0.329 0.396,-0.629 0.608,-0.952 l 0.959,-1.515 c 1.541,-2.462 2.85,-5.037 3.997,-7.676 -0.561,2.472 -0.341,5.061 0.489,7.409 0.364,0.991 0.915,1.956 1.74,2.697 0.824,0.741 1.941,1.156 3.029,1.156 2.196,-0.01 4.136,-1.126 5.633,-2.532 1.803,-1.663 3.408,-3.716 4.127,-6.152 0.729,-2.443 0.827,-5.102 0.123,-7.556 -0.697,-2.453 -2.136,-4.619 -3.949,-6.279 -0.857,-0.781 -1.728,-1.551 -2.695,-2.208 -0.669,-0.489 -1.602,-0.682 -2.285,-0.995 0.433,0.234 0.717,0.379 0.984,0.563 0.61,0.378 1.187,0.8 1.734,1.248 1.345,1.104 2.474,2.425 3.392,3.866 0.608,0.971 1.237,1.958 1.583,3.068 0.731,2.309 0.642,4.8 -0.006,7.074 -0.698,2.467 -2.054,4.743 -3.937,6.396 -1.743,1.605 -4.293,2.468 -5.985,1.666 -1.047,-0.438 -1.869,-1.608 -2.354,-2.965 -0.473,-1.37 -0.7,-2.898 -0.598,-4.411 0.026,-0.454 0.334,-0.855 0.405,-1.29 0.394,-2.28 1.391,-4.581 3.075,-6.275 0.717,-0.652 1.72,-1.016 2.553,-0.921 0.854,0.063 1.449,0.895 1.774,1.805 0.327,0.903 0.428,1.909 0.255,2.871 -0.258,1.486 -1.029,2.882 -2.171,3.851 -0.142,0.114 -0.293,0.251 -0.436,0.334 -0.094,0.037 -0.202,0.176 -0.239,0.005 -0.029,-0.051 -0.049,-0.091 -0.073,-0.152 -0.045,-0.081 -0.077,-0.168 -0.114,-0.253 -0.07,-0.171 -0.13,-0.348 -0.177,-0.528 -0.188,-0.721 -0.198,-1.496 -0.012,-2.234 0.041,-0.174 0.115,-0.365 0.162,-0.505 0.057,-0.191 0.194,-0.436 0.202,-0.449 0.013,-0.013 -0.094,0.14 -0.195,0.284 -0.142,0.206 -0.277,0.499 -0.371,0.774 -0.153,0.457 -0.198,0.942 -0.196,1.424 10e-4,0.432 0.058,0.87 0.184,1.293 l 0.107,0.314 c 0.03,0.064 0.126,0.324 0.21,0.44 l 0.144,0.204 0.072,0.102 c 0.027,0.024 0.07,-0.026 0.104,-0.035 0.141,-0.068 0.3,-0.167 0.457,-0.261 0.785,-0.465 1.442,-1.067 1.978,-1.799 1.056,-1.452 1.615,-3.342 1.329,-5.239 -0.104,-0.608 -0.267,-1.201 -0.55,-1.782 -0.269,-0.576 -0.801,-1.253 -1.57,-1.568 -0.763,-0.336 -1.598,-0.268 -2.244,-0.064 -0.666,0.204 -1.22,0.537 -1.723,0.915 -1.016,0.81 -1.672,1.709 -2.312,2.688 -0.079,0.127 -0.137,0.265 -0.211,0.395 1.826,-5.003 3.075,-10.197 3.859,-15.391 0.734,-4.638 1.137,-9.305 1.356,-13.965 0.066,-1.376 0.117,-2.752 0.158,-4.128 3.182,-5.253 6.174,-10.85 8.121,-16.759 0.953,-3.087 1.52,-6.319 2.526,-9.375 0.991,-3.064 2.272,-6.014 3.605,-8.984 0.342,-0.738 0.667,-1.486 0.975,-2.243 0.319,-0.754 0.631,-1.509 0.913,-2.279 0.534,-1.558 1.031,-3.124 1.385,-4.783 0.731,-3.262 1.166,-6.519 1.259,-9.805 0.071,-3.28 -0.125,-6.552 -0.566,-9.787 -0.455,-3.232 -1.079,-6.442 -2.173,-9.554 l -0.396,0.057 c -0.486,6.496 -0.685,12.825 -1.133,19.096 -0.15,2.225 -0.251,4.466 -0.438,6.677 -1.003,1.113 -2.12,2.11 -3.318,2.985 -1.082,0.762 -2.168,1.606 -3.407,2.028 -1.278,0.444 -2.715,0.437 -3.649,-0.379 -0.951,-0.794 -1.488,-2.167 -2.092,-3.401 -1.19,-2.764 -1.873,-5.727 -1.988,-8.711 -0.118,-2.905 0.366,-5.784 1.118,-8.546 0.438,-1.678 1.028,-3.325 1.802,-4.896 0.381,-0.847 0.748,-1.508 1.174,-1.538 0.255,-0.046 0.639,0.042 1.033,0.198 0.4,0.152 0.793,0.33 1.174,0.534 0.45,0.254 0.739,0.728 1.133,1.036 2.102,1.588 3.714,4.04 4.051,6.791 0.13,1.14 -0.118,2.276 -0.358,3.373 -0.476,2.165 -1.563,4.291 -3.323,5.738 -0.331,0.27 -0.703,0.498 -1.095,0.486 -0.392,0.006 -0.75,-0.224 -1.005,-0.546 -0.524,-0.661 -0.709,-1.526 -0.756,-2.396 -0.125,-1.74 0.182,-3.507 0.868,-5.132 0.084,-0.182 0.167,-0.365 0.256,-0.558 0.089,-0.212 0.25,-0.489 0.26,-0.504 0.013,-0.016 -0.107,0.162 -0.231,0.321 -0.17,0.229 -0.357,0.542 -0.511,0.833 -0.255,0.482 -0.438,0.996 -0.608,1.512 -0.315,0.923 -0.498,1.895 -0.559,2.884 -0.026,0.496 -0.019,0.99 0.022,1.496 0.054,0.527 0.182,1.045 0.435,1.544 0.247,0.484 0.64,1.022 1.34,1.251 0.34,0.106 0.714,0.119 1.056,0.031 0.34,-0.086 0.62,-0.241 0.86,-0.398 0.883,-0.624 1.609,-1.322 2.253,-2.148 1.632,-2.105 2.515,-4.808 2.368,-7.516 -0.129,-2.725 -1.346,-5.312 -3.187,-7.233 -1.132,-1.204 -2.558,-2.107 -4.095,-2.678 -0.399,-0.14 -0.858,-0.28 -1.4,-0.249 -0.552,0.019 -1.099,0.335 -1.413,0.687 -0.643,0.726 -0.865,1.419 -1.262,2.107 -2.136,4.2 -3.027,8.949 -2.742,13.613 0.177,2.777 0.48,5.649 1.647,8.26 l 0.443,0.986 0.509,0.954 c 0.331,0.635 0.699,1.266 1.194,1.872 0.484,0.598 1.152,1.165 1.955,1.434 0.793,0.287 1.633,0.278 2.386,0.136 1.525,-0.297 2.79,-1.087 3.942,-1.911 1.158,-0.841 2.198,-1.824 3.117,-2.894 0.177,-0.211 0.35,-0.427 0.526,-0.64 -0.059,0.616 -0.12,1.231 -0.199,1.84 -0.421,3.016 -1.053,6.152 -1.637,9.299 -0.599,3.152 -1.501,6.241 -2.728,9.201 -1.229,2.962 -2.989,5.713 -4.416,8.588 -1.422,2.878 -2.484,5.902 -3.515,8.948 -0.489,1.535 -0.974,3.071 -1.366,4.651 -0.023,0.08 -0.039,0.163 -0.061,0.244 0.018,-1.9 0.016,-3.8 -0.025,-5.7 -0.048,-4.66 -0.217,-9.324 -0.516,-13.987 -0.287,-4.664 -0.729,-9.327 -1.434,-13.954 -0.706,-4.626 -1.63,-9.22 -2.808,-13.753 -0.59,-2.266 -1.214,-4.523 -1.883,-6.77 -0.662,-2.13 -1.363,-4.248 -2.129,-6.35 2.104,-1.693 3.155,-4.58 3.346,-7.305 0.204,-2.792 -0.286,-5.534 -1.08,-8.056 -0.402,-1.263 -0.861,-2.496 -1.359,-3.674 l -0.738,-1.72 c -0.119,-0.274 -0.243,-0.563 -0.329,-0.796 l -0.153,-0.37 c -0.026,-0.083 -0.046,-0.144 -0.08,-0.221 -0.109,-0.383 -0.104,-1.016 -0.103,-1.587 0.022,-0.845 0.097,-1.74 0.169,-2.639 0.002,-0.004 0.005,-0.008 0.007,-0.012 1.772,-1.238 3.38,-2.794 4.558,-4.745 1.347,-2.281 1.937,-4.917 2.259,-7.412 0.339,-2.512 0.499,-4.97 0.737,-7.395 0.255,-2.419 2.646,-5.424 3.383,-2.71 0.796,2.907 1.71,5.785 2.763,8.61 1.027,2.837 2.185,5.624 3.449,8.361 1.257,2.741 2.62,5.431 4.037,8.093 1.456,2.639 2.962,5.253 4.553,7.816 3.184,5.127 6.683,10.053 10.557,14.749 0.11,0.13 0.229,0.267 0.355,0.41 4.311,4.863 6.197,11.458 4.771,17.798 -0.628,2.792 -1.347,5.558 -2.144,8.31 -0.498,1.659 -0.967,3.319 -1.508,4.967 -0.495,1.658 -1.027,3.31 -1.571,4.959 -1.092,3.3 -2.16,6.614 -3.126,9.996 -0.935,3.389 -1.824,6.82 -2.289,10.415 l -0.154,1.351 c -0.035,0.456 -0.03,0.928 -0.046,1.389 -0.044,0.951 0.022,1.776 0.045,2.653 0.018,1.735 0.008,3.476 -0.072,5.215 -0.312,6.962 -1.422,13.876 -2.851,20.695 -1.468,6.84 -3.189,13.509 -4.812,20.347 -1.621,6.815 -3.201,13.645 -4.459,20.549 -1.179,6.924 -2.332,13.841 -2.693,20.98 -0.037,0.898 -0.065,1.8 -0.043,2.721 l 0.072,1.404 c -0.002,0.36 -10e-4,0.691 0.011,1.047 -0.106,1.384 -0.839,2.766 -1.92,3.954 -2.194,2.391 -5.337,4.098 -8.523,5.412 l 0.103,0.387 c 1.753,-0.32 3.45,-0.85 5.113,-1.535 1.655,-0.694 3.291,-1.548 4.729,-2.794 1.431,-1.212 2.727,-2.919 3.118,-5.032 0.059,-0.517 0.112,-1.058 0.15,-1.571 l 0.066,-1.217 c 0.075,-0.824 0.154,-1.669 0.262,-2.511 0.971,-6.785 2.386,-13.634 3.746,-20.453 l 3.944,-20.545 c 0.668,-3.413 1.391,-6.851 1.934,-10.337 0.566,-3.473 0.973,-6.971 1.364,-10.462 0.417,-3.488 0.678,-6.992 1.035,-10.479 0.324,-3.491 0.661,-6.979 0.948,-10.477 0.156,-1.748 0.299,-3.5 0.418,-5.259 0.066,-0.87 0.092,-1.796 0.22,-2.586 0.06,-0.41 0.087,-0.814 0.172,-1.223 l 0.295,-1.231 c 0.836,-3.278 2.112,-6.516 3.286,-9.786 2.377,-6.54 4.52,-13.277 6.043,-20.185 1.387,-6.467 2.203,-13.159 1.721,-19.764 l 0.601,0.345 c 0.26,0.133 0.681,0.27 1.025,0.366 0.127,0.054 0.504,0.087 0.79,0.082 0.299,-0.006 0.64,-0.083 0.93,-0.18 0.577,-0.222 1.013,-0.578 1.28,-0.879 0.549,-0.624 0.778,-1.155 0.964,-1.618 0.372,-0.944 0.521,-1.753 0.669,-2.565 0.138,-0.805 0.235,-1.587 0.311,-2.361 0.298,-3.089 0.375,-6.087 0.45,-9.087 l 0.153,-8.951 c 0.107,-5.947 0.25,-11.873 0.674,-17.753 0.486,-5.855 1.04,-11.764 3.192,-17.124 1.109,-2.661 2.502,-5.21 4.251,-7.543 1.756,-2.331 3.832,-4.433 5.933,-6.559 2.074,-2.142 4.21,-4.353 5.745,-7.025 1.554,-2.653 2.463,-5.655 2.805,-8.691 0.287,-3.043 0.213,-6.091 -0.263,-9.131 z M 193.911,449.024 c -1.223,2.145 -1.996,4.511 -2.292,6.96 -0.133,1.228 -0.182,2.472 -0.041,3.749 0.049,0.503 0.144,1.02 0.269,1.541 -1.92,-0.502 -3.779,-1 -5.536,-1.61 -2.087,-0.735 -4.051,-1.615 -5.514,-2.776 -0.733,-0.573 -1.319,-1.203 -1.799,-1.897 -0.241,-0.349 -0.422,-0.734 -0.585,-1.138 l -0.207,-0.632 c -0.005,-0.058 -0.005,-0.096 -0.02,-0.147 l -0.025,-0.073 0.007,-0.15 c 0.006,-0.806 0.259,-1.915 0.533,-2.956 0.271,-1.06 0.574,-2.156 0.96,-3.228 0.769,-2.136 1.966,-4.193 3.714,-5.624 1.708,-1.483 4.182,-1.831 5.516,-1.196 0.708,0.299 1.387,0.772 2.099,1.414 0.695,0.652 1.364,1.461 2.006,2.333 0.643,0.874 1.255,1.818 1.899,2.779 l 0.405,0.622 c -0.509,0.647 -0.988,1.316 -1.389,2.029 z m 19.178,15.258 c -1.924,0.755 -4.051,1.3 -6.258,1.49 -2.205,0.225 -4.483,0.077 -6.664,-0.453 -0.54,-0.151 -1.091,-0.271 -1.608,-0.486 -0.528,-0.184 -1.048,-0.391 -1.535,-0.649 -0.98,-0.465 -1.948,-1.157 -2.442,-1.852 -0.428,-0.474 -0.291,-1.564 -0.168,-2.571 0.161,-1.024 0.416,-2.071 0.713,-3.1 0.577,-2.068 1.262,-4.102 1.99,-6.121 0.744,-2.007 1.528,-4.06 2.845,-5.827 0.655,-0.878 1.463,-1.659 2.421,-2.227 0.957,-0.564 2.061,-0.891 3.182,-0.942 1.144,-0.029 2.284,0.237 3.281,0.761 0.999,0.525 1.846,1.291 2.556,2.144 1.427,1.723 2.288,3.815 3.15,5.824 0.832,2.036 1.624,4.097 2.199,6.212 0.303,1.047 0.562,2.107 0.757,3.129 0.09,0.509 0.182,1.014 0.212,1.448 0.015,0.151 0.018,0.275 0.019,0.384 -1.308,1.206 -2.888,2.15 -4.65,2.836 z m 5.028,-3.172 c -0.028,0.028 -0.06,0.051 -0.088,0.078 0.079,-0.089 0.167,-0.168 0.264,-0.227 z m 17.715,-5.021 c -0.924,0.424 -2.009,0.847 -3.055,1.281 l -6.513,2.628 -3.301,1.332 c -0.284,0.108 -0.567,0.219 -0.85,0.33 0.02,-0.259 0.031,-0.506 0.029,-0.73 -0.007,-0.737 -0.058,-1.399 -0.159,-2.046 -0.189,-1.292 -0.497,-2.512 -0.865,-3.711 -0.77,-2.379 -1.79,-4.67 -3.196,-6.755 -0.569,-0.822 -1.221,-1.594 -1.914,-2.327 0.056,-0.072 0.11,-0.147 0.168,-0.219 0.348,-0.464 0.747,-0.888 1.118,-1.306 0.781,-0.813 1.587,-1.532 2.436,-2.1 1.665,-1.184 3.584,-1.556 5.444,-1.642 1.747,-0.048 4.141,0.833 5.846,2.403 1.741,1.564 2.985,3.649 3.831,5.833 0.439,1.086 0.77,2.209 1.098,3.285 0.313,1.07 0.605,2.168 0.665,3.059 l 0.004,0.266 c -0.041,0.025 -0.051,0.049 -0.17,0.103 -0.212,0.104 -0.374,0.211 -0.616,0.316 z m 0.728,-0.131 c -0.001,-0.026 0.006,-0.052 0.02,-0.074 0.005,-0.018 0.016,-0.044 0.026,-0.068 l -0.013,0.107 c -0.023,0.007 -0.025,0.104 -0.033,0.035 z m 4.424,-61.855 c -0.272,3.057 -0.848,6.069 -1.093,9.115 -0.236,3.047 -0.234,6.109 -0.237,9.172 0.003,1.532 0.004,3.064 0.082,4.601 0.063,1.537 0.23,3.079 0.376,4.628 0.086,0.787 0.16,1.556 0.352,2.419 0.202,0.823 0.49,1.58 0.79,2.316 0.633,1.454 1.342,2.818 1.97,4.216 1.281,2.774 2.09,5.776 2.461,8.515 0.206,1.361 0.254,2.698 0.141,3.924 -0.13,1.22 -0.526,2.405 -1.194,3.532 -1.194,2.008 -3.122,3.773 -5.311,5.353 -0.706,-1.456 -1.617,-2.705 -2.581,-3.935 -1.583,-1.949 -3.18,-3.778 -4.805,-5.637 -0.826,-0.92 -1.642,-1.881 -2.633,-2.762 -0.986,-0.872 -2.173,-1.697 -3.693,-2.041 -0.796,-0.178 -1.472,-0.139 -2.193,-0.131 -0.358,0.008 -0.712,0.109 -1.068,0.165 -0.358,0.055 -0.706,0.154 -1.044,0.289 -1.386,0.439 -2.617,1.268 -3.59,2.25 -0.979,0.984 -1.729,2.127 -2.225,3.344 -0.231,0.527 -0.396,1.077 -0.529,1.631 -0.768,-0.696 -1.578,-1.345 -2.453,-1.895 -2.122,-1.352 -4.55,-2.175 -6.96,-2.052 -2.362,0.104 -4.65,1.045 -6.664,2.457 -0.738,0.522 -1.424,1.124 -2.079,1.76 -0.251,-1.124 -0.613,-2.229 -1.114,-3.307 -0.539,-1.147 -1.223,-2.275 -2.183,-3.284 -0.933,-1.008 -2.265,-1.91 -3.853,-2.145 -1.596,-0.236 -3.119,0.286 -4.233,1.016 -0.605,0.325 -1.072,0.782 -1.577,1.174 -0.451,0.445 -0.92,0.856 -1.338,1.302 -1.683,1.767 -3.232,3.575 -4.758,5.514 -0.038,0.051 -0.075,0.104 -0.113,0.155 0.515,-7.723 5.417,-14.74 5.119,-23.347 0.201,-9.241 -0.567,-18.314 -1.293,-27.395 -0.429,-4.531 -0.855,-9.059 -1.364,-13.569 -0.514,-4.521 -0.962,-8.982 -1.299,-13.507 -0.348,-4.52 -0.666,-9.064 -1.135,-13.605 -0.452,-4.543 -1.08,-9.078 -1.822,-13.591 -0.709,-4.519 -1.67,-8.995 -2.691,-13.446 -1.066,-4.463 -2.291,-8.804 -3.037,-13.272 -1.528,-8.936 -1.926,-18.027 -2.763,-27.08 -0.425,-4.529 -0.929,-9.06 -1.673,-13.588 -0.181,-1.132 -0.369,-2.265 -0.597,-3.401 -0.114,-0.634 -0.24,-1.27 -0.376,-1.907 0.046,0.032 0.088,0.071 0.135,0.103 1.172,0.779 2.451,1.416 3.919,1.704 0.757,0.147 1.626,0.082 2.359,-0.314 0.739,-0.387 1.282,-1.03 1.673,-1.689 0.778,-1.356 1.156,-2.742 1.625,-4.107 0.954,-2.985 1.691,-6.088 1.886,-9.296 0.208,-3.094 -0.064,-6.372 -1.355,-9.315 -0.771,-1.771 -1.868,-3.41 -3.233,-4.779 -0.677,-0.69 -1.44,-1.29 -2.233,-1.827 -0.781,-0.53 -1.693,-1.004 -2.649,-1.238 -0.557,-0.139 -1.132,-0.476 -1.796,-0.402 -0.845,0.07 -1.727,0.516 -2.249,1.212 -0.528,0.698 -0.707,1.487 -0.826,2.206 -0.213,1.433 -0.32,2.855 -0.357,4.283 -0.033,1.175 -0.19,2.358 -0.099,3.54 0.198,2.33 0.688,4.595 1.401,6.826 0.168,0.429 0.449,0.839 0.846,1.118 0.394,0.281 0.883,0.405 1.355,0.396 0.95,-0.023 1.84,-0.479 2.476,-1.161 0.654,-0.698 0.898,-1.658 0.945,-2.556 0.042,-0.914 -0.125,-1.807 -0.349,-2.67 -0.051,-0.203 -0.11,-0.435 -0.166,-0.597 -0.075,-0.219 -0.167,-0.527 -0.168,-0.545 -0.002,-0.021 0.04,0.191 0.064,0.39 0.051,0.333 0.098,0.642 0.147,0.96 0.077,0.531 0.162,1.059 0.168,1.586 0.009,0.935 -0.176,1.894 -0.656,2.621 -0.482,0.706 -1.316,1.175 -2.115,1.256 -0.831,0.082 -1.43,-0.287 -1.683,-0.964 -0.258,-0.696 -0.394,-1.736 -0.554,-2.627 -0.368,-2.376 -0.496,-4.776 -0.381,-7.163 0.057,-1.194 0.184,-2.384 0.372,-3.564 0.179,-1.211 0.416,-2.262 1.053,-2.667 0.753,-0.585 2.27,-0.36 3.479,0.258 1.245,0.657 2.431,1.604 3.371,2.733 1.436,1.706 2.47,3.76 3.104,5.924 0.641,2.169 0.841,4.453 0.739,6.722 -0.123,2.731 -0.946,5.356 -1.62,7.987 -0.351,1.319 -0.733,2.713 -1.17,3.954 -0.446,1.234 -1.143,2.32 -2.254,2.547 -1.122,0.245 -2.448,-0.284 -3.653,-0.902 -0.62,-0.319 -1.225,-0.676 -1.81,-1.066 -0.007,-0.01 -0.012,-0.018 -0.018,-0.028 -0.222,-1.247 -0.651,-2.516 -1.04,-3.776 -0.422,-1.146 -0.972,-2.392 -1.48,-3.313 -1.826,-3.55 -3.607,-7.143 -5.394,-10.744 -3.408,-6.868 -2.921,-15.048 1.349,-21.417 0.897,-1.338 1.77,-2.69 2.619,-4.058 1.591,-2.563 3.097,-5.177 4.553,-7.816 1.417,-2.662 2.78,-5.352 4.037,-8.093 1.264,-2.738 2.422,-5.525 3.449,-8.361 1.054,-2.825 1.967,-5.703 2.763,-8.61 0.736,-2.71 2.748,-2.686 3.092,-0.098 0.731,5.088 1.27,10.42 3.349,15.48 1.065,2.495 2.577,4.857 4.562,6.692 1.292,1.217 2.726,2.235 4.237,3.085 0.289,0.447 0.63,0.976 0.919,1.422 0.048,0.626 0.09,1.243 0.105,1.836 0.002,0.572 0.006,1.204 -0.103,1.587 -0.034,0.076 -0.054,0.137 -0.08,0.221 l -0.153,0.37 c -0.086,0.233 -0.211,0.522 -0.33,0.796 l -0.738,1.72 c -0.499,1.178 -0.957,2.411 -1.359,3.674 -0.795,2.522 -1.285,5.264 -1.08,8.056 0.145,2.065 0.782,4.226 1.998,5.889 -0.784,3.771 -1.122,7.583 -1.604,11.328 -0.597,4.96 -1.166,9.911 -1.66,14.907 -0.11,1.249 -0.239,2.501 -0.304,3.754 -0.083,1.254 -0.169,2.51 -0.177,3.766 -0.071,2.514 0.008,5.027 0.124,7.538 0.241,5.022 0.725,10.045 1.663,14.989 1.735,9.018 4.505,17.844 8.484,26.089 -2.771,4.89 -4.495,10.374 -4.9,16.009 -0.158,2.038 -0.13,4.088 0.064,6.121 -0.006,0.005 -0.011,0.01 -0.017,0.015 -0.163,0.112 -0.141,0.423 -0.285,0.534 0.102,-0.064 0.184,-0.092 0.259,-0.127 0.027,-0.012 0.05,-0.029 0.077,-0.042 0.224,2.111 0.63,4.2 1.212,6.232 0.082,0.296 0.176,0.588 0.266,0.881 0,0 0,0 0,0 0,0 0,0 0,0 1.161,3.793 2.951,7.354 5.084,10.628 2.315,3.527 5.059,6.723 8.061,9.609 2.987,2.895 6.371,5.487 10.083,7.402 1.849,0.971 3.755,1.831 5.721,2.523 1.967,0.69 3.986,1.208 6.021,1.624 4.081,0.828 13.56,3.82 13.11,8.878 z M 211.361,232.916 c 0.045,1.217 0.099,2.433 0.182,3.647 0.104,1.226 0.234,2.451 0.389,3.672 0.66,4.889 1.846,9.703 2.829,14.511 0.282,1.199 0.551,2.397 0.784,3.605 0.26,1.203 0.618,2.386 0.875,3.596 0.118,0.607 0.34,1.192 0.52,1.787 l 0.533,1.796 c 0.187,0.575 0.386,1.141 0.588,1.705 -0.646,3.108 -0.989,6.238 -1.185,9.368 -0.21,3.674 -0.195,7.353 0.022,11.025 0.227,3.671 0.681,7.335 1.376,10.961 0.606,2.962 1.384,5.904 2.474,8.751 -0.863,0.129 -1.721,0.274 -2.574,0.441 -1.032,0.186 -2.045,0.434 -3.063,0.668 -1,0.263 -2.021,0.474 -3.101,0.86 -4.196,1.524 -7.675,4.253 -10.603,7.37 -1.654,1.801 -3.128,3.765 -4.414,5.845 -0.818,-3.697 -1.65,-7.369 -2.405,-11.041 -0.979,-4.831 -1.853,-9.659 -2.632,-14.498 -0.791,-4.835 -1.577,-9.673 -2.102,-14.553 -0.262,-2.439 -0.48,-4.884 -0.684,-7.335 -0.199,-2.45 -0.43,-4.908 -0.538,-7.374 -0.262,-4.93 -0.098,-9.903 0.747,-14.769 0.864,-4.861 2.505,-9.574 4.376,-13.996 0.939,-2.203 1.922,-4.374 3.118,-6.278 0.281,-0.503 0.641,-0.886 0.951,-1.337 0.166,-0.206 0.347,-0.372 0.518,-0.564 0.169,-0.206 0.35,-0.352 0.53,-0.484 0.18,-0.139 0.352,-0.318 0.525,-0.378 0.185,-0.086 0.293,-0.214 0.591,-0.281 0.516,-0.133 1.028,-0.382 1.553,-0.439 0.523,-0.078 1.052,-0.199 1.578,-0.182 0.263,-0.002 0.532,-0.033 0.797,-0.017 l 0.792,0.095 c 1.048,0.178 2.11,0.502 3.098,1.061 1.283,0.689 2.476,1.647 3.555,2.762 z m 10.038,65.315 c -0.105,-3.628 -0.279,-7.236 -0.51,-10.849 -0.218,-3.613 2.541,-7.009 3.593,-4.802 2.097,4.418 4.214,8.813 6.43,13.13 2.223,4.315 4.475,8.599 6.573,12.937 0.224,0.466 0.435,0.937 0.654,1.405 -0.362,-0.272 -0.73,-0.54 -1.116,-0.773 -1.922,-1.142 -4.062,-1.796 -6.197,-2.125 -2.142,-0.334 -4.287,-0.35 -6.399,-0.216 -0.969,0.061 -1.931,0.163 -2.886,0.289 0.035,-3.039 -0.043,-6.018 -0.142,-8.996 z m 40.476,103.838 c -0.898,1.462 -1.421,3.108 -1.608,4.787 -0.085,0.842 -0.102,1.694 -0.011,2.552 0.067,0.627 0.162,1.249 0.373,1.896 -1.454,-0.382 -2.869,-0.756 -4.203,-1.209 -1.584,-0.537 -3.062,-1.199 -4.216,-2.044 -1.101,-0.82 -2.189,-1.869 -2.099,-2.912 -0.034,-0.721 0.04,-1.541 0.142,-2.353 0.093,-0.818 0.219,-1.652 0.407,-2.482 0.391,-1.632 1.195,-3.26 2.537,-4.24 0.691,-0.424 1.464,-0.723 2.21,-0.634 0.736,0.007 1.34,0.313 1.885,0.681 1.091,0.744 2.192,1.877 3.197,3.2 0.518,0.651 1.005,1.35 1.527,2.052 l 0.18,0.247 c -0.107,0.155 -0.226,0.3 -0.321,0.459 z m 12.744,10.54 c -1.341,0.463 -2.791,0.834 -4.297,1 -1.503,0.163 -3.056,0.118 -4.54,-0.227 -0.745,-0.151 -1.47,-0.402 -2.135,-0.725 -0.651,-0.311 -1.316,-0.814 -1.292,-1.188 -0.101,-0.56 -0.021,-1.305 0.108,-2 0.137,-0.705 0.311,-1.41 0.514,-2.104 0.389,-1.393 0.836,-2.751 1.325,-4.092 0.494,-1.335 1.04,-2.695 1.983,-3.847 0.473,-0.566 1.052,-1.063 1.725,-1.407 0.673,-0.343 1.428,-0.53 2.192,-0.576 0.795,-0.015 1.592,0.126 2.303,0.447 0.711,0.321 1.325,0.815 1.811,1.398 0.974,1.179 1.528,2.589 2.005,3.993 0.491,1.398 0.909,2.84 1.174,4.307 0.139,0.728 0.253,1.463 0.316,2.167 0.038,0.35 0.058,0.696 0.054,0.988 0,0.081 -0.004,0.151 -0.008,0.213 -0.938,0.705 -2.043,1.247 -3.238,1.653 z m 3.587,-1.91 c -0.03,0.025 -0.064,0.045 -0.094,0.07 0.029,-0.028 0.062,-0.047 0.094,-0.07 z m 13.064,-3.367 c 0.005,-0.022 0.023,-0.046 0.043,-0.067 -0.02,0.05 -0.038,0.088 -0.054,0.104 -0.013,0.034 -0.008,-0.034 0.011,-0.037 z m 0.182,-0.674 c -0.025,0.217 -0.077,0.428 -0.126,0.566 -0.091,0.041 -0.169,0.092 -0.349,0.16 -0.637,0.262 -1.425,0.56 -2.199,0.836 -1.553,0.586 -3.156,1.175 -4.75,1.799 -0.938,0.352 -1.877,0.747 -2.819,1.117 0.005,-0.043 0.02,-0.098 0.024,-0.139 0.053,-0.519 0.061,-0.989 0.047,-1.45 -0.04,-0.92 -0.164,-1.798 -0.351,-2.663 -0.391,-1.719 -0.985,-3.396 -1.928,-4.92 -0.231,-0.373 -0.489,-0.734 -0.768,-1.079 0.256,-0.277 0.523,-0.542 0.778,-0.803 0.594,-0.575 1.191,-1.108 1.821,-1.554 1.235,-0.956 2.545,-1.44 3.922,-1.811 0.742,-0.148 1.38,-0.33 2.108,-0.206 0.721,0.119 1.469,0.484 2.069,1.035 1.221,1.109 1.897,2.755 2.203,4.384 0.165,0.818 0.231,1.65 0.3,2.449 0.059,0.798 0.091,1.591 0.018,2.279 z m 14.563,-5.761 c -0.011,-0.008 -0.017,-0.047 -0.019,-0.104 0.019,0.064 0.026,0.13 0.019,0.104 z m 0.392,-2.066 c 0.268,-0.833 0.622,-1.665 0.981,-2.501 0.367,-0.832 0.738,-1.679 1.198,-2.477 0.456,-0.797 0.987,-1.564 1.659,-2.169 0.659,-0.591 1.479,-1.081 2.286,-1.052 0.775,0.018 1.498,0.595 2.076,1.231 0.577,0.664 1.062,1.416 1.522,2.168 0.92,1.51 1.83,2.992 2.692,4.543 0.39,0.777 0.775,1.632 0.718,2.497 -0.013,0.429 -0.143,0.866 -0.43,1.199 -0.284,0.339 -0.695,0.558 -1.133,0.69 -1.847,0.473 -3.805,0.124 -5.622,-0.373 l -2.684,-0.708 c -0.877,-0.207 -1.746,-0.43 -2.518,-0.708 -0.202,-0.066 -0.38,-0.133 -0.55,-0.208 -0.192,-0.066 -0.321,-0.151 -0.454,-0.215 -0.078,-0.033 -0.134,-0.065 -0.149,-0.086 0.009,-0.173 0.037,-0.406 0.083,-0.613 0.076,-0.387 0.193,-0.804 0.325,-1.218 z m -2.084,-3.176 c 0.002,0.432 -0.049,0.87 -0.128,1.304 -0.144,0.274 -0.296,0.543 -0.425,0.829 -0.216,0.477 -0.423,0.962 -0.59,1.5 -0.046,0.177 -0.094,0.349 -0.139,0.527 -0.125,0.181 -0.27,0.343 -0.383,0.516 -0.256,0.437 -0.617,0.724 -0.898,1.062 -0.686,0.554 -1.436,0.829 -2.302,1.072 -1.628,0.492 -3.698,0.467 -5.96,0.497 -0.229,-0.547 -0.49,-1.077 -0.775,-1.593 2.166,-0.685 4.097,-2.123 5.622,-3.794 1.706,-1.895 3.103,-4.048 3.9,-6.403 0.194,-0.592 0.372,-1.188 0.541,-1.784 l 0.21,-1.014 0.075,0.638 c 0.151,1.092 0.197,2.172 0.476,3.255 0.295,1.077 0.754,2.224 0.776,3.388 z m 3.217,-40.107 c -0.636,2.312 -1.118,4.638 -1.55,6.965 -0.476,2.315 -0.633,4.691 -0.989,7.025 -0.329,2.344 -0.555,4.706 -0.746,7.099 -0.083,1.201 -0.274,2.375 -0.513,3.542 -0.123,0.582 -0.257,1.162 -0.418,1.733 -0.178,0.565 -0.378,1.124 -0.598,1.675 -0.22,0.551 -0.461,1.095 -0.723,1.629 -0.283,0.525 -0.583,1.041 -0.898,1.548 l -0.928,1.517 c -0.33,0.49 -0.649,0.98 -0.953,1.474 -0.569,1.014 -1.175,1.968 -1.665,3 -0.574,0.966 -1.075,1.994 -1.688,2.925 -0.289,0.485 -0.576,0.973 -0.906,1.422 -0.312,0.471 -0.617,0.954 -0.971,1.397 -0.511,0.73 -1.103,1.407 -1.715,2.113 -0.788,-1.324 -1.63,-2.579 -2.636,-3.757 -0.604,-0.687 -1.267,-1.388 -2.156,-1.921 -0.449,-0.249 -0.94,-0.477 -1.473,-0.592 -0.544,-0.136 -1.009,-0.128 -1.532,-0.174 -1.013,0.043 -2.06,0.267 -2.944,0.778 -0.906,0.463 -1.696,1.1 -2.336,1.829 -0.642,0.728 -1.175,1.525 -1.545,2.388 -0.117,0.248 -0.213,0.506 -0.3,0.767 -0.668,-0.653 -1.416,-1.224 -2.218,-1.675 -1.564,-0.894 -3.304,-1.213 -4.952,-1.138 -1.584,0.103 -3.195,0.516 -4.66,1.389 -0.788,0.461 -1.525,1.041 -2.181,1.701 -0.218,-0.73 -0.487,-1.447 -0.824,-2.15 -0.419,-0.845 -0.932,-1.667 -1.594,-2.42 -0.65,-0.755 -1.488,-1.444 -2.534,-1.836 -1.04,-0.386 -2.269,-0.428 -3.263,-0.042 l -0.732,0.274 c -0.227,0.119 -0.442,0.259 -0.655,0.388 l -0.32,0.189 -0.283,0.234 -0.565,0.447 c -1.38,1.295 -2.462,2.768 -3.468,4.36 -0.01,0.017 -0.019,0.035 -0.029,0.052 0,-0.322 -0.003,-0.641 -0.016,-0.952 0.019,-0.799 -0.03,-1.555 -0.073,-2.294 -0.023,-1.481 -0.161,-2.88 -0.131,-4.244 0.001,-1.363 0.034,-2.696 0.202,-4.073 0.001,-0.012 0.003,-0.023 0.004,-0.035 0.276,-2.169 1.831,-3.943 3.918,-4.595 3.777,-1.182 7.444,-2.736 10.943,-4.595 7.309,-3.944 13.886,-9.301 19.238,-15.746 5.324,-6.461 9.354,-14.062 11.587,-22.212 1.105,-4.076 1.765,-8.274 1.993,-12.496 0.201,-4.113 0.337,-8.232 0.378,-12.356 0.096,-8.248 1.715,-14.808 2.235,-12.568 1.04,4.477 1.99,8.975 2.548,13.479 0.551,4.511 0.894,8.973 0.328,13.342 -0.285,2.342 -0.47,4.702 -0.583,7.079 -0.109,2.378 -0.128,4.776 0.099,7.216 0.111,1.221 0.271,2.451 0.558,3.715 0.136,0.63 0.327,1.277 0.57,1.94 0.259,0.663 0.568,1.364 1.196,2.118 0.152,0.185 0.373,0.385 0.578,0.562 0.268,0.185 0.495,0.364 0.852,0.497 0.643,0.297 1.523,0.316 2.138,0.114 0.165,-0.054 0.316,-0.113 0.459,-0.176 -0.195,0.708 -0.382,1.417 -0.56,2.125 z m 10.098,-88.739 c 0.95,4.508 1.813,9.042 2.517,13.607 0.383,2.28 0.628,4.576 0.911,6.872 0.192,2.301 0.431,4.604 0.503,6.915 0.431,9.232 -0.345,18.542 -2.422,27.492 -0.981,4.49 -2.471,8.834 -4.121,13.06 -1.644,4.24 -3.765,8.247 -6.205,12.022 l -0.944,1.4 c -0.305,0.445 -0.655,1 -0.896,1.279 -0.024,0.032 -0.05,0.055 -0.075,0.083 -0.088,-0.17 -0.181,-0.382 -0.257,-0.615 -0.141,-0.432 -0.272,-0.902 -0.364,-1.41 -0.198,-1.006 -0.311,-2.086 -0.377,-3.178 -0.235,-4.396 0.065,-8.968 0.567,-13.495 0.486,-4.878 0.067,-9.744 -0.734,-14.401 -0.223,-1.163 -0.398,-2.34 -0.661,-3.489 l -0.783,-3.449 c -0.599,-2.275 -1.19,-4.551 -1.896,-6.784 -2.097,-6.889 -4.663,-13.597 -7.61,-20.126 -0.772,-5.224 -1.627,-10.398 -2.148,-15.516 -0.403,-3.985 -0.532,-7.957 -0.189,-11.912 0.068,-0.99 0.198,-1.975 0.313,-2.962 l 0.432,-2.995 c 0.283,-2.045 0.61,-4.082 0.855,-6.13 0.571,-4.483 0.936,-8.99 1.132,-13.502 1.179,-1.148 2.569,-2.045 4.041,-2.447 2.052,-0.49 4.09,0.183 5.741,1.517 0.403,0.351 0.791,0.729 1.186,1.085 0.402,0.349 0.711,0.817 1.07,1.215 l 0.526,0.614 c 0.164,0.204 0.235,0.401 0.362,0.596 0.225,0.436 0.465,0.948 0.676,1.451 0.859,2.057 1.566,4.246 2.262,6.424 2.718,8.76 4.726,17.765 6.588,26.779 z m 68.626,-110.631 c -0.306,2.881 -1.065,5.723 -2.565,8.203 -1.476,2.49 -3.508,4.631 -5.653,6.678 -2.134,2.064 -4.34,4.127 -6.321,6.45 -1.96,2.344 -3.589,4.973 -4.917,7.749 -0.576,1.421 -1.244,2.817 -1.692,4.294 -0.472,1.464 -0.861,2.944 -1.194,4.429 -0.674,2.971 -1.133,5.965 -1.49,8.959 -0.714,5.99 -1.002,11.987 -1.239,17.955 -0.264,5.947 -0.345,11.964 -0.985,17.683 -0.143,1.18 -0.354,2.409 -0.638,3.342 -0.107,-0.082 -0.217,-0.167 -0.32,-0.238 -2.054,-1.681 -4.038,-3.905 -5.923,-6.098 -3.818,-4.416 -7.264,-9.211 -10.554,-14.091 -3.263,-4.904 -6.288,-9.973 -9.021,-15.196 -2.708,-5.231 -5.201,-10.596 -7.107,-16.18 -0.97,-2.787 -1.791,-5.62 -2.505,-8.491 -0.184,-0.793 -0.349,-1.589 -0.505,-2.388 0.526,-2.429 1.092,-4.863 1.674,-7.287 l 3.36,-14.347 3.457,-14.359 c 0.576,-2.396 1.138,-4.796 1.665,-7.21 0.276,-1.202 0.522,-2.418 0.775,-3.63 l 0.361,-1.837 c 0.125,-0.649 0.204,-1.347 0.245,-1.998 0.17,-5.217 -0.864,-10.056 -1.762,-14.934 -0.493,-2.427 -0.968,-4.852 -1.517,-7.262 -0.248,-1.196 -0.512,-2.387 -0.782,-3.577 -0.355,-1.569 1.122,-2.934 2.658,-2.454 l 0.032,0.01 c 1.313,0.405 2.544,1.058 3.653,1.891 2.227,1.671 4.009,3.924 5.572,6.305 3.134,4.822 5.379,10.134 8.125,15.519 0.727,1.378 1.535,2.744 2.584,4.031 1.022,1.289 2.471,2.45 3.919,3.182 0.711,0.375 1.349,0.667 1.875,0.99 0.545,0.337 0.939,0.643 1.435,1.16 0.966,0.96 1.888,2.089 2.811,3.234 1.83,2.31 3.77,4.649 5.922,6.767 1.083,1.055 2.258,2.092 3.591,2.88 1.337,0.763 2.806,1.433 4.437,1.298 l -0.044,-0.398 c -0.661,-0.048 -1.358,-0.329 -1.971,-0.661 -0.623,-0.336 -1.21,-0.738 -1.76,-1.188 -1.092,-0.922 -2.052,-1.965 -2.948,-3.111 -1.835,-2.271 -3.417,-4.71 -5.104,-7.167 -0.846,-1.229 -1.703,-2.477 -2.749,-3.694 -0.494,-0.586 -1.229,-1.258 -1.93,-1.723 -0.716,-0.487 -1.413,-0.844 -1.994,-1.193 -1.168,-0.671 -2.005,-1.477 -2.826,-2.511 -0.802,-1.03 -1.491,-2.24 -2.114,-3.496 -1.236,-2.593 -2.495,-5.34 -3.901,-7.999 -1.443,-2.648 -3.029,-5.257 -4.941,-7.67 -1.909,-2.399 -4.12,-4.661 -6.833,-6.296 -2.675,-1.661 -6.005,-2.459 -9.11,-1.888 l -0.779,0.143 0.205,0.726 c 1.332,4.716 2.389,9.536 3.128,14.384 0.383,2.422 0.641,4.863 0.792,7.293 0.147,2.421 0.203,4.872 -0.117,7.164 -0.091,0.575 -0.196,1.096 -0.352,1.647 l -0.51,1.755 -1.06,3.53 c -0.709,2.356 -1.407,4.72 -2.081,7.091 -1.356,4.74 -2.664,9.497 -3.965,14.26 -2.602,9.542 -4.977,19.103 -6.292,29.099 -0.626,5.021 -0.433,10.084 -0.483,14.893 -0.068,2.398 -0.273,4.728 -1.148,6.877 -0.648,1.664 -1.721,3.165 -2.982,4.548 0.068,-0.696 0.135,-1.401 0.175,-2.128 -0.895,1.018 -1.576,2.155 -2.206,3.348 -0.299,0.603 -0.574,1.226 -0.799,1.888 -0.216,0.686 -0.423,1.332 -0.457,2.228 0.02,0.258 0.052,0.677 0.072,0.934 l 0.054,0.344 c 0.058,0.391 0.146,0.705 0.223,1.04 0.15,0.676 0.342,1.279 0.517,1.904 l 1.105,3.587 c 0.734,2.349 1.388,4.643 1.756,6.966 0.354,2.284 0.431,4.578 -0.232,7.127 -0.029,-0.08 -0.055,-0.16 -0.084,-0.24 -0.795,-2.216 -1.684,-4.393 -2.761,-6.556 -0.278,-0.548 -0.563,-1.075 -0.913,-1.644 -0.2,-0.283 -0.393,-0.611 -0.608,-0.845 l -0.655,-0.665 c -0.456,-0.426 -0.846,-0.903 -1.354,-1.278 -0.5,-0.381 -0.986,-0.771 -1.495,-1.133 -0.564,-0.308 -1.113,-0.63 -1.685,-0.909 -0.627,-0.191 -1.214,-0.473 -1.871,-0.548 -1.295,-0.256 -2.642,-0.068 -3.847,0.345 -1.428,0.598 -2.603,1.517 -3.56,2.604 0.122,-3.337 0.155,-6.676 0.097,-10.011 -0.076,-4.119 -0.328,-8.235 -0.826,-12.323 -0.485,-4.087 -1.111,-8.159 -2.215,-12.137 l -0.387,0.1 c 1.4,8.033 1.554,16.235 1.345,24.352 -0.164,5.633 -0.651,11.245 -1.351,16.828 -0.565,-1.158 -1.316,-2.228 -2.179,-3.179 -0.783,-0.868 -1.736,-1.543 -2.626,-2.27 -1.86,-1.525 -3.869,-2.859 -5.983,-4.007 -2.298,-1.233 -4.725,-2.238 -7.228,-3.017 -2.43,-0.755 -4.93,-1.402 -7.489,-1.571 -3.091,-0.176 -6.185,0.159 -9.177,0.754 -0.442,0.092 -0.928,-0.08 -1.371,0.023 -2.325,0.524 -4.568,1.31 -6.755,2.17 -0.905,0.35 -1.867,0.562 -2.757,0.962 -1.746,0.805 -3.383,1.81 -5.033,2.767 -2.539,1.497 -4.968,3.232 -6.998,5.379 -0.12,0.124 -0.261,0.263 -0.352,0.371 -0.123,0.146 -0.307,0.337 -0.32,0.346 -0.015,0.009 0.123,-0.104 0.259,-0.2 0.192,-0.137 0.425,-0.326 0.632,-0.499 0.34,-0.287 0.673,-0.58 1.025,-0.849 2.508,-1.951 5.322,-3.425 8.141,-4.739 3.639,-1.674 7.393,-3.043 11.296,-3.919 2.407,-0.527 4.859,-1.046 7.36,-1.118 3.765,-0.111 7.56,0.367 11.185,1.421 2.177,0.632 4.184,1.704 6.22,2.623 2.061,0.954 4.08,2.033 5.965,3.287 1.875,1.263 3.682,2.688 5.107,4.495 0.389,0.492 0.707,1.038 0.974,1.607 -0.284,2.197 -0.598,4.389 -0.942,6.576 -0.315,2.005 -0.71,3.998 -1.061,5.996 l -0.55,3.065 c -0.15,1.042 -0.313,2.082 -0.415,3.132 -0.476,4.193 -0.448,8.441 -0.136,12.605 0.324,4.168 0.924,8.251 1.471,12.301 0.57,4.05 1.057,8.078 1.516,12.107 0.819,7.537 1.221,15.107 1.348,22.699 -1.152,0.245 -2.31,0.454 -3.448,0.697 -2.388,0.497 -4.715,1.158 -7.081,1.728 -0.728,0.191 -1.451,0.409 -2.181,0.61 -0.728,0.208 -1.458,0.428 -2.204,0.546 -2.242,0.427 -4.522,0.636 -6.802,0.728 -1.369,0.015 -2.736,-0.239 -4.094,-0.242 -2.759,-0.021 -5.523,0.016 -8.326,0.035 -0.663,0.015 -1.313,-0.121 -1.959,-0.263 -0.45,-0.115 -1.001,0.032 -1.427,-0.06 0.271,0.076 0.447,0.146 0.625,0.203 0.398,0.13 0.8,0.251 1.204,0.353 0.99,0.28 2.001,0.446 3.013,0.587 0.683,0.093 1.38,-0.004 2.062,0.074 l 2.138,0.243 c 0.714,0.082 1.429,0.182 2.148,0.222 1.556,0.131 3.117,0.169 4.681,0.191 1.519,-0.006 3.054,0.067 4.562,-0.169 1.821,-0.28 3.591,-0.862 5.352,-1.362 0.262,-0.069 0.57,0.103 0.83,0.019 l 2.035,-0.658 c 0.671,-0.239 1.34,-0.482 2.014,-0.693 0.559,-0.164 1.159,-0.182 1.716,-0.362 1.101,-0.344 2.152,-0.835 3.25,-1.168 0.639,-0.198 1.274,-0.408 1.905,-0.631 0.006,0.004 0.006,0.004 0.012,0.008 0.049,4.373 -0.014,8.753 -0.152,13.132 -0.146,3.955 -0.694,7.894 -1.664,11.738 -1.406,5.682 -3.727,11.138 -6.795,16.163 -1.168,-0.139 -2.323,-0.373 -3.457,-0.566 -2.068,-0.375 -4.129,-0.622 -6.183,-1.05 -0.64,-0.11 -1.285,-0.204 -1.928,-0.328 -0.645,-0.113 -1.302,-0.211 -1.919,-0.431 -1.898,-0.563 -3.701,-1.415 -5.426,-2.382 -1.007,-0.633 -1.867,-1.48 -2.827,-2.15 -1.956,-1.357 -3.913,-2.728 -5.833,-4.241 -0.469,-0.343 -0.815,-0.809 -1.154,-1.275 -0.225,-0.335 -0.695,-0.536 -0.921,-0.842 0.131,0.208 0.202,0.357 0.285,0.499 0.181,0.319 0.372,0.634 0.577,0.937 0.475,0.771 1.085,1.434 1.689,2.099 0.414,0.443 0.971,0.728 1.4,1.151 0.442,0.448 0.907,0.871 1.371,1.3 0.463,0.43 0.913,0.882 1.417,1.266 1.053,0.887 2.187,1.669 3.339,2.432 l 1.715,1.068 c 0.583,0.337 1.194,0.626 1.821,0.874 1.531,0.567 3.169,0.804 4.753,1.077 0.232,0.049 0.402,0.329 0.643,0.356 l 1.87,0.214 c 0.626,0.041 1.25,0.071 1.865,0.134 0.505,0.067 0.994,0.264 1.506,0.301 1.008,0.09 2.022,-0.005 3.022,0.059 0.678,0.037 1.359,0.051 2.039,0.036 -1.145,1.832 -2.382,3.61 -3.722,5.311 -0.006,0.002 -0.01,0.003 -0.016,0.005 -0.882,-0.278 -1.758,-0.574 -2.636,-0.818 -1.776,-0.474 -3.562,-0.754 -5.353,-1.04 -1.103,-0.184 -2.257,-0.199 -3.353,-0.468 -1.652,-0.397 -3.258,-0.973 -4.776,-1.727 -0.908,-0.462 -1.648,-1.211 -2.515,-1.702 -1.73,-1.059 -3.448,-2.131 -5.142,-3.374 -0.4,-0.294 -0.695,-0.695 -0.98,-1.096 -0.182,-0.293 -0.595,-0.465 -0.772,-0.74 0.104,0.184 0.155,0.319 0.215,0.448 0.131,0.292 0.278,0.576 0.456,0.836 0.402,0.67 0.899,1.274 1.444,1.828 0.369,0.372 0.846,0.62 1.237,0.959 0.805,0.724 1.609,1.471 2.487,2.128 1.487,1.116 3.117,2.045 4.785,2.873 0.423,0.21 0.857,0.405 1.311,0.537 1.359,0.397 2.793,0.48 4.177,0.633 0.203,0.024 0.348,0.292 0.553,0.311 1.07,0.112 2.149,0.121 3.205,0.214 0.435,0.044 0.84,0.266 1.276,0.314 0.858,0.089 1.73,0.068 2.577,0.205 0.462,0.073 0.924,0.143 1.387,0.208 -4.66,5.865 -10.401,10.926 -16.909,14.76 -6.934,4.094 -14.786,6.822 -22.86,7.399 -0.31,0.025 -0.621,0.04 -0.931,0.057 -0.333,-0.352 -0.623,-0.738 -0.899,-1.107 -0.728,-0.945 -1.46,-1.896 -2.195,-2.85 -0.449,-0.614 -1.072,-1.173 -1.491,-1.838 -0.628,-1.008 -1.158,-2.078 -1.566,-3.195 -0.246,-0.67 -0.192,-1.443 -0.446,-2.099 -0.464,-1.353 -1.022,-2.675 -1.699,-4.015 -0.147,-0.319 -0.185,-0.665 -0.205,-1.012 0.001,-0.245 -0.271,-0.474 -0.28,-0.704 -0.005,0.149 -0.029,0.251 -0.043,0.352 -0.031,0.225 -0.058,0.452 -0.054,0.673 -0.016,0.548 0.03,1.089 0.128,1.619 0.068,0.357 0.283,0.675 0.36,1.028 0.151,0.738 0.233,1.501 0.383,2.251 0.284,1.39 0.679,2.762 1.174,4.099 0.138,0.373 0.307,0.738 0.538,1.061 0.467,0.652 1.049,1.236 1.57,1.836 0.094,0.11 -0.031,0.348 0.068,0.459 0.508,0.581 1.095,1.099 1.629,1.629 0.215,0.222 0.297,0.559 0.526,0.776 0.433,0.412 0.95,0.722 1.409,1.084 -7.396,0.233 -14.876,-1.464 -21.217,-5.205 -3.475,-2.023 -6.532,-4.617 -9.28,-7.553 -2.754,-2.929 -5.226,-6.105 -7.243,-9.526 -2.031,-3.414 -3.53,-7.095 -4.515,-10.877 -0.111,-0.433 -0.212,-0.869 -0.306,-1.306 0.507,-0.505 1.092,-0.932 1.667,-1.345 0.678,-0.496 1.383,-0.942 2.091,-1.368 l 1.079,-0.542 c 0.362,-0.172 0.725,-0.335 1.051,-0.566 0.797,-0.535 1.545,-1.225 2.406,-1.753 0.125,-0.084 0.34,0.079 0.47,0.012 0.338,-0.193 0.678,-0.387 1.018,-0.581 0.348,-0.178 0.707,-0.338 1.072,-0.482 0.302,-0.124 0.651,-0.017 0.96,-0.099 0.607,-0.175 1.22,-0.392 1.857,-0.428 0.982,-0.057 1.953,-0.009 2.946,-0.103 0.058,-0.005 0.125,-0.008 0.173,-0.019 0.065,-0.017 0.156,-0.023 0.16,-0.021 0.005,0.003 -0.053,-0.011 -0.107,-0.035 -0.076,-0.032 -0.175,-0.063 -0.265,-0.085 -0.148,-0.041 -0.299,-0.049 -0.448,-0.081 -0.533,-0.143 -1.074,-0.25 -1.627,-0.361 -0.554,-0.14 -1.115,-0.194 -1.679,-0.223 -1.447,-0.027 -2.884,0.301 -4.202,0.877 -0.415,0.158 -0.802,0.389 -1.174,0.641 -0.378,0.237 -0.753,0.472 -1.123,0.704 -1.16,0.623 -2.246,1.347 -3.348,2.05 -0.634,0.449 -1.471,0.67 -2.036,1.239 -0.435,0.388 -0.823,0.825 -1.19,1.278 -0.184,-1.05 -0.322,-2.106 -0.408,-3.166 -0.058,-0.647 -0.092,-1.296 -0.116,-1.945 0.032,-0.016 0.064,-0.032 0.095,-0.048 0.556,-0.283 1.114,-0.545 1.674,-0.795 0.553,-0.231 1.148,-0.356 1.645,-0.671 0.597,-0.385 1.131,-0.954 1.754,-1.381 0.091,-0.066 0.269,0.111 0.361,0.054 0.484,-0.314 0.969,-0.676 1.501,-0.912 0.219,-0.104 0.487,0.002 0.711,-0.074 0.44,-0.156 0.875,-0.384 1.342,-0.435 0.721,-0.085 1.439,-0.102 2.156,-0.298 0.042,-0.01 0.091,-0.019 0.125,-0.036 0.046,-0.023 0.115,-0.036 0.115,-0.036 0.004,0.003 -0.04,-0.006 -0.082,-0.025 -0.059,-0.024 -0.134,-0.046 -0.202,-0.059 -0.112,-0.027 -0.223,-0.02 -0.335,-0.038 -0.404,-0.08 -0.817,-0.162 -1.227,-0.243 -0.418,-0.1 -0.839,-0.155 -1.258,-0.17 -1.075,-0.016 -2.119,0.268 -3.083,0.715 -0.75,0.316 -1.343,1.008 -2.085,1.242 -0.68,0.385 -1.348,0.765 -2.028,1.15 -0.346,0.231 -0.793,0.319 -1.201,0.475 0.007,-0.766 0.034,-1.532 0.097,-2.296 0.306,-3.877 1.251,-7.704 2.761,-11.304 1.521,-3.595 3.638,-6.944 6.213,-9.866 2.571,-2.901 5.681,-5.423 9.177,-6.788 0.838,-0.334 1.817,-0.581 2.789,-0.861 0.754,-0.195 1.508,-0.392 2.265,-0.569 0.021,0.006 0.039,0.01 0.06,0.016 0.395,0.371 0.671,0.863 0.956,1.318 0.294,0.462 0.563,0.932 0.818,1.402 0.236,0.47 0.365,0.986 0.675,1.393 0.378,0.488 0.936,0.908 1.355,1.432 0.066,0.076 -0.11,0.248 -0.055,0.326 0.305,0.408 0.66,0.818 0.885,1.284 0.101,0.191 -0.011,0.434 0.06,0.63 0.147,0.386 0.361,0.77 0.398,1.185 0.062,0.641 0.049,1.274 0.21,1.918 0.008,0.038 0.015,0.081 0.03,0.113 0.021,0.042 0.03,0.104 0.03,0.104 0,0 0.007,-0.035 0.029,-0.071 0.027,-0.051 0.052,-0.117 0.069,-0.177 0.032,-0.099 0.031,-0.198 0.054,-0.297 0.105,-0.356 0.199,-0.718 0.294,-1.092 0.117,-0.375 0.181,-0.755 0.208,-1.136 0.041,-0.976 -0.23,-1.928 -0.675,-2.781 -0.252,-0.541 -0.752,-0.962 -1.059,-1.447 -0.459,-0.743 -0.956,-1.445 -1.419,-2.175 -0.292,-0.421 -0.361,-1.04 -0.747,-1.41 -0.276,-0.305 -0.592,-0.571 -0.927,-0.813 1.753,-0.377 3.518,-0.677 5.284,-0.838 1.965,-0.181 3.937,-0.217 5.85,0.028 1.914,0.225 3.774,0.727 5.414,1.62 1.624,0.906 3.027,2.191 3.998,3.812 0.981,1.61 1.612,3.468 1.955,5.401 0.691,3.883 0.377,7.975 -0.305,11.955 -0.691,3.835 -1.711,7.641 -3.038,11.327 -0.656,-1.006 -1.356,-1.964 -2.094,-2.883 -1.853,-2.27 -3.862,-4.374 -6.078,-6.253 -0.202,-0.684 -0.53,-1.323 -0.951,-1.931 -0.564,-0.835 -1.421,-1.532 -2.45,-2.02 -0.535,-0.218 -1.093,-0.409 -1.695,-0.442 -0.603,-0.096 -1.185,-0.015 -1.77,0.09 -0.302,0.036 -0.574,0.114 -0.829,0.231 -0.26,0.109 -0.525,0.21 -0.776,0.336 -0.268,0.11 -0.477,0.268 -0.683,0.435 -0.211,0.16 -0.413,0.33 -0.611,0.502 -1.499,1.458 -2.184,3.286 -3.066,4.821 -0.9,1.533 -1.992,2.952 -2.906,4.679 -0.917,1.699 -1.35,3.959 -0.721,6.051 0.531,2.104 1.778,3.956 3.306,5.228 1.536,1.292 3.279,2.147 5.065,2.702 0.736,0.221 1.48,0.389 2.23,0.516 1.445,0.598 2.949,1.082 4.518,1.374 2.01,0.375 4.118,0.517 6.326,0.108 1.103,-0.255 2.236,-0.59 3.307,-1.292 0.264,-0.179 0.534,-0.343 0.783,-0.55 l 0.706,-0.704 c 0.117,-0.129 0.226,-0.22 0.346,-0.382 0.122,-0.178 0.239,-0.361 0.349,-0.547 0.228,-0.37 0.331,-0.761 0.46,-1.148 0.322,-1.534 0.052,-2.764 -0.251,-3.85 -0.337,-1.084 -0.761,-2.056 -1.253,-2.964 -0.308,-0.576 -0.639,-1.127 -0.979,-1.669 1.651,-3.71 2.963,-7.564 3.865,-11.544 0.897,-4.026 1.456,-8.209 0.928,-12.445 -0.157,-1.284 -0.461,-2.568 -0.905,-3.815 l -0.311,-1.691 c -0.199,-1.248 -0.544,-2.437 -0.867,-3.643 -0.303,-1.217 -0.706,-2.383 -1.097,-3.563 -1.587,-4.703 -3.556,-9.23 -5.669,-13.659 -2.129,-4.425 -4.538,-8.681 -6.89,-12.952 l -3.553,-6.382 c -0.591,-1.061 -1.207,-2.112 -1.815,-3.164 l -1.781,-3.178 c -0.545,-1.075 -1.167,-2.136 -1.649,-3.232 -0.454,-1.102 -0.969,-2.187 -1.325,-3.338 -0.361,-1.151 -0.695,-2.311 -0.991,-3.483 -0.263,-1.182 -0.488,-2.373 -0.701,-3.564 -0.736,-4.804 -0.637,-9.702 -0.772,-14.54 -0.146,-4.843 -0.487,-9.675 -0.82,-14.526 -0.349,-4.851 -0.7,-9.711 -1.322,-14.601 l -0.4,-0.014 c -0.905,4.868 -1.228,9.774 -1.378,14.682 -0.047,1.755 -0.045,3.51 -0.018,5.266 -0.663,-0.878 -1.434,-1.689 -2.333,-2.396 -2.086,-1.751 -5.088,-2.587 -7.905,-2.252 -0.717,0.035 -1.374,0.266 -2.068,0.4 -0.32,0.043 -0.746,0.254 -1.128,0.417 -0.415,0.161 -0.719,0.389 -1.04,0.617 -1.27,0.918 -2.173,2.013 -2.932,3.139 -1.533,2.248 -2.538,4.664 -3.296,7.117 0.043,-0.731 0.122,-1.455 0.234,-2.177 0.368,-2.323 1.023,-4.618 1.757,-6.966 l 1.105,-3.587 c 0.174,-0.625 0.367,-1.228 0.516,-1.904 0.077,-0.335 0.164,-0.649 0.223,-1.04 l 0.054,-0.344 c 0.02,-0.258 0.052,-0.677 0.072,-0.934 -0.033,-0.896 -0.241,-1.542 -0.457,-2.228 -0.225,-0.662 -0.5,-1.285 -0.799,-1.888 -0.63,-1.193 -1.311,-2.33 -2.206,-3.348 0.038,0.684 0.101,1.349 0.164,2.003 -1.444,-1.088 -2.78,-2.28 -3.886,-3.653 -1.562,-1.939 -2.706,-4.136 -3.416,-6.496 -0.748,-2.348 -1.114,-4.832 -1.393,-7.349 -0.286,-2.519 -0.431,-5.086 -0.634,-7.677 -0.115,-1.299 -0.195,-2.582 -0.354,-3.908 l -0.229,-1.986 -0.289,-1.954 c -0.412,-2.601 -0.916,-5.16 -1.435,-7.716 -0.505,-2.558 -1.101,-5.09 -1.714,-7.615 -0.594,-2.531 -1.234,-5.046 -1.916,-7.55 -1.342,-5.013 -2.73,-10.008 -4.127,-14.997 -1.394,-4.974 -2.943,-9.969 -4.347,-14.855 -0.542,-2.251 -0.569,-4.858 -0.448,-7.386 0.144,-2.546 0.346,-5.116 0.741,-7.661 0.741,-5.097 1.84,-10.164 3.236,-15.119 l 0.205,-0.728 -0.78,-0.141 c -3.107,-0.564 -6.435,0.23 -9.109,1.893 -2.71,1.637 -4.921,3.897 -6.835,6.294 -1.908,2.413 -3.495,5.022 -4.94,7.669 -1.407,2.658 -2.665,5.407 -3.902,7.996 -0.622,1.259 -1.312,2.467 -2.114,3.497 -0.821,1.033 -1.658,1.839 -2.826,2.51 -0.581,0.349 -1.278,0.706 -1.994,1.193 -0.701,0.465 -1.436,1.137 -1.93,1.723 -1.045,1.217 -1.903,2.465 -2.749,3.694 -1.686,2.457 -3.269,4.895 -5.103,7.166 -0.897,1.145 -1.856,2.189 -2.948,3.11 -0.55,0.45 -1.137,0.852 -1.76,1.188 -0.613,0.332 -1.31,0.613 -1.971,0.661 l -0.044,0.398 c 1.631,0.135 3.1,-0.535 4.437,-1.298 1.332,-0.788 2.507,-1.825 3.591,-2.88 2.152,-2.118 4.092,-4.457 5.922,-6.767 0.923,-1.145 1.845,-2.274 2.811,-3.234 0.496,-0.517 0.889,-0.823 1.434,-1.16 0.526,-0.323 1.165,-0.615 1.875,-0.99 1.448,-0.732 2.897,-1.893 3.919,-3.182 1.049,-1.287 1.859,-2.654 2.583,-4.03 2.747,-5.389 4.996,-10.694 8.127,-15.519 1.567,-2.377 3.349,-4.628 5.573,-6.302 1.109,-0.833 2.34,-1.487 3.653,-1.892 l 0.032,-0.01 c 1.54,-0.481 3.014,0.886 2.661,2.461 -0.863,3.845 -1.68,7.692 -2.443,11.566 -0.467,2.559 -0.961,5.123 -1.283,7.732 l -0.212,1.967 -0.123,1.994 c -0.05,1.34 -0.03,2.704 0.185,4.132 1.972,10.3 4.699,20.215 6.994,30.311 l 3.53,15.057 c 0.283,1.219 0.56,2.44 0.826,3.66 -0.156,0.803 -0.322,1.603 -0.507,2.399 -0.714,2.87 -1.535,5.704 -2.505,8.491 -1.906,5.584 -4.399,10.949 -7.107,16.18 -2.733,5.223 -5.757,10.293 -9.021,15.196 -3.29,4.88 -6.736,9.675 -10.554,14.091 -1.885,2.193 -3.868,4.418 -5.923,6.098 -0.103,0.071 -0.212,0.156 -0.32,0.238 -0.284,-0.933 -0.495,-2.162 -0.638,-3.342 -0.64,-5.718 -0.721,-11.735 -0.985,-17.683 -0.237,-5.968 -0.526,-11.964 -1.239,-17.955 -0.357,-2.994 -0.817,-5.989 -1.49,-8.959 -0.333,-1.485 -0.722,-2.965 -1.194,-4.429 -0.448,-1.477 -1.116,-2.873 -1.692,-4.294 -1.327,-2.776 -2.957,-5.405 -4.917,-7.749 -1.981,-2.322 -4.187,-4.386 -6.321,-6.45 -2.145,-2.048 -4.177,-4.188 -5.653,-6.678 -1.5,-2.48 -2.258,-5.322 -2.565,-8.203 -0.062,-1.456 -0.152,-2.909 0.004,-4.366 0.038,-1.462 0.328,-2.888 0.579,-4.311 0.695,-2.808 1.835,-5.466 3.438,-7.82 1.596,-2.361 3.617,-4.414 5.841,-6.26 2.221,-1.857 4.659,-3.494 7.101,-5.214 2.428,-1.755 4.921,-3.458 7.202,-5.674 2.267,-2.189 4.188,-4.642 5.872,-7.201 3.401,-5.108 5.999,-10.557 8.572,-15.928 1.303,-2.677 2.549,-5.367 3.923,-7.958 l 1.06,-1.912 c 0.39,-0.561 0.74,-1.154 1.157,-1.703 0.464,-0.512 0.866,-1.084 1.38,-1.561 0.529,-0.459 0.988,-1 1.576,-1.402 1.414,-1.103 2.957,-2.05 4.589,-2.86 4.392,-2.179 9.341,2.076 7.811,6.734 -0.011,0.033 -0.022,0.065 -0.033,0.098 l 0.347,0.199 c 1.322,-1.713 2.254,-3.713 3.058,-5.695 0.793,-1.982 1.474,-3.99 2.184,-5.936 1.411,-3.906 2.949,-7.644 5.004,-11.035 2.025,-3.399 4.476,-6.516 7.429,-9.225 l 2.28,-1.969 c 0.816,-0.593 1.651,-1.164 2.459,-1.784 0.796,-0.639 1.667,-1.171 2.535,-1.72 0.869,-0.545 1.731,-1.12 2.618,-1.649 0.918,-0.459 1.833,-0.94 2.768,-1.385 l 1.401,-0.679 1.468,-0.505 c 0.978,-0.346 1.976,-0.629 2.967,-0.941 1.011,-0.229 2.039,-0.392 3.062,-0.558 0.512,-0.083 1.026,-0.149 1.54,-0.209 0.52,-0.02 1.037,-0.053 1.557,-0.061 1.04,0.001 2.069,-0.072 3.103,0.002 2.07,0.167 4.111,0.313 6.139,0.624 l 1.521,0.162 1.514,0.231 c 1.008,0.158 2.027,0.217 3.031,0.412 2.019,0.31 4.031,0.676 6.046,1.086 4.024,0.854 8.016,1.948 12.062,3.182 l 0.108,-0.169 0.097,0.175 c 4.046,-1.234 8.038,-2.328 12.062,-3.182 2.015,-0.41 4.028,-0.776 6.046,-1.086 1.004,-0.195 2.023,-0.255 3.031,-0.412 l 1.514,-0.231 1.521,-0.162 c 2.028,-0.312 4.069,-0.458 6.139,-0.624 1.034,-0.074 2.063,-10e-4 3.103,-0.002 0.519,0.008 1.037,0.042 1.557,0.061 0.514,0.06 1.028,0.125 1.54,0.209 1.023,0.167 2.051,0.33 3.062,0.558 0.99,0.312 1.989,0.595 2.967,0.941 l 1.468,0.505 1.401,0.679 c 0.935,0.445 1.85,0.926 2.768,1.385 0.888,0.529 1.749,1.104 2.618,1.649 0.868,0.549 1.74,1.082 2.535,1.72 0.808,0.62 1.642,1.191 2.459,1.784 l 2.28,1.969 c 2.953,2.709 5.404,5.826 7.429,9.225 2.056,3.391 3.592,7.128 5.004,11.035 0.711,1.947 1.391,3.954 2.184,5.936 0.803,1.982 1.736,3.982 3.058,5.695 l 0.347,-0.199 -0.033,-0.098 c -1.554,-4.702 3.336,-8.947 7.775,-6.752 1.645,0.814 3.201,1.766 4.625,2.878 0.589,0.402 1.047,0.943 1.576,1.402 0.513,0.477 0.916,1.049 1.38,1.561 0.417,0.549 0.767,1.142 1.157,1.703 l 1.06,1.912 c 1.375,2.591 2.62,5.281 3.923,7.958 2.573,5.371 5.171,10.82 8.572,15.928 1.685,2.559 3.605,5.012 5.872,7.201 2.281,2.215 4.774,3.919 7.202,5.674 2.442,1.721 4.88,3.357 7.101,5.214 2.224,1.846 4.245,3.899 5.841,6.26 1.603,2.354 2.743,5.012 3.438,7.82 0.25,1.424 0.54,2.849 0.579,4.311 0.158,1.455 0.068,2.908 0.006,4.364 z m -160.991,197.47 c -1.943,-1.424 -3.748,-2.778 -5.228,-4.25 -0.539,-0.511 -1.032,-1.032 -1.472,-1.564 -0.441,-0.533 -0.842,-1.086 -1.111,-1.696 -0.286,-0.607 -0.467,-1.253 -0.595,-1.955 -0.139,-0.698 -0.209,-1.469 -0.166,-2.272 0.089,-1.619 0.764,-3.254 1.867,-4.564 1.039,-1.36 2.667,-2.211 3.948,-2.843 1.32,-0.65 2.233,-1.039 3.445,-0.905 0.991,0.121 2.13,0.669 3.335,1.408 1.529,2.581 3.092,5.083 4.533,7.609 0.931,1.623 1.824,3.254 2.538,4.876 0.356,0.81 0.674,1.615 0.859,2.376 0.205,0.748 0.259,1.472 0.165,1.825 -0.045,0.056 -0.033,0.152 -0.072,0.182 -0.016,0.018 -0.025,0.038 -0.029,0.065 -0.017,0.033 -0.098,0.096 -0.142,0.143 -0.105,0.103 -0.204,0.211 -0.3,0.324 -0.115,0.101 -0.266,0.177 -0.391,0.275 -0.506,0.402 -1.236,0.647 -1.976,0.891 -1.545,0.421 -3.328,0.515 -5.12,0.467 -1.346,-0.049 -2.718,-0.175 -4.088,-0.392 z" id="path3" style="enable-background:new 0 0 500 500;fill:none;stroke:#000000;stroke-opacity:1;fill-opacity:1;stroke-width:8.93858268;stroke-dasharray:none" /><g id="eyes" style="enable-background:new 0 0 500 500"><rect id="hitbox-eyes" fill="#000000" fill-opacity="0.01" stroke="none" pointer-events="all" /><path d="m 193.119,161.837 c -0.844,0.114 -1.614,0.472 -2.292,1.016 0.542,0.617 0.946,1.512 1.085,2.544 0.279,2.069 -0.617,3.897 -2.001,4.084 -0.691,0.093 -1.372,-0.241 -1.916,-0.856 -0.15,1.146 -0.156,2.375 0.015,3.642 0.711,5.284 4.152,9.182 7.685,8.706 3.533,-0.476 5.821,-5.145 5.109,-10.429 -0.711,-5.284 -4.152,-9.182 -7.685,-8.707 z" id="path1" /><path d="m 199.169,161.234 c -0.68,-1.228 -1.475,-2.339 -2.355,-3.306 -0.893,-0.939 -1.88,-1.663 -2.904,-2.225 -1.031,-0.538 -2.104,-0.831 -3.175,-0.916 -1.068,-0.047 -2.123,0.133 -3.136,0.529 -1,0.437 -1.947,1.082 -2.799,1.933 -0.833,0.885 -1.569,1.949 -2.185,3.16 -0.585,1.246 -1.048,2.62 -1.364,4.089 -0.292,1.484 -0.43,3.048 -0.416,4.631 0.039,1.588 0.229,3.177 0.564,4.719 0.359,1.535 0.853,3.014 1.485,4.362 0.647,1.331 1.384,2.564 2.232,3.594 0.861,1.005 1.787,1.846 2.756,2.485 0.982,0.591 1.99,0.986 2.989,1.15 1.001,0.142 1.98,0.031 2.896,-0.274 -0.971,-0.118 -1.916,-0.339 -2.827,-0.761 -0.906,-0.452 -1.775,-1.013 -2.572,-1.758 -0.794,-0.748 -1.524,-1.617 -2.167,-2.596 -0.625,-1.005 -1.181,-2.074 -1.626,-3.223 -0.433,-1.16 -0.739,-2.379 -0.975,-3.604 -0.193,-1.24 -0.305,-2.487 -0.29,-3.71 0.041,-1.216 0.157,-2.411 0.41,-3.533 0.262,-1.114 0.619,-2.163 1.073,-3.111 0.469,-0.931 1.025,-1.755 1.655,-2.451 0.635,-0.689 1.353,-1.204 2.109,-1.608 0.766,-0.373 1.584,-0.564 2.42,-0.638 0.839,-0.007 1.695,0.094 2.549,0.39 0.851,0.32 1.684,0.82 2.495,1.446 0.801,0.655 1.558,1.468 2.256,2.412 0.698,0.948 1.301,2.052 1.845,3.242 0.527,1.206 0.937,2.519 1.29,3.901 -0.069,-1.422 -0.279,-2.88 -0.654,-4.299 -0.388,-1.411 -0.925,-2.768 -1.579,-4.03 z" id="path2" /><path d="m 311.99,172.266 c 0.171,-1.266 0.164,-2.495 0.015,-3.642 -0.544,0.615 -1.226,0.949 -1.916,0.856 -1.384,-0.186 -2.279,-2.014 -2.001,-4.084 0.139,-1.031 0.543,-1.927 1.085,-2.544 -0.678,-0.543 -1.448,-0.902 -2.292,-1.016 -3.533,-0.476 -6.974,3.422 -7.685,8.706 -0.711,5.284 1.576,9.953 5.109,10.429 3.533,0.477 6.974,-3.421 7.685,-8.705 z" id="path4" /><path d="m 317.384,160.409 c -0.616,-1.211 -1.352,-2.275 -2.185,-3.16 -0.852,-0.851 -1.798,-1.496 -2.799,-1.933 -1.012,-0.396 -2.068,-0.576 -3.136,-0.529 -1.07,0.085 -2.144,0.378 -3.175,0.916 -1.024,0.562 -2.012,1.285 -2.904,2.225 -0.88,0.967 -1.674,2.078 -2.355,3.306 -0.653,1.263 -1.19,2.619 -1.579,4.028 -0.375,1.419 -0.585,2.877 -0.654,4.299 0.353,-1.381 0.764,-2.695 1.29,-3.901 0.544,-1.19 1.147,-2.294 1.845,-3.242 0.698,-0.944 1.455,-1.757 2.256,-2.412 0.811,-0.626 1.644,-1.126 2.495,-1.446 0.854,-0.297 1.71,-0.398 2.549,-0.39 0.836,0.074 1.654,0.265 2.42,0.638 0.755,0.404 1.474,0.918 2.109,1.608 0.629,0.697 1.186,1.52 1.655,2.451 0.455,0.948 0.811,1.997 1.073,3.111 0.253,1.122 0.37,2.317 0.411,3.533 0.015,1.224 -0.097,2.47 -0.29,3.71 -0.236,1.225 -0.542,2.444 -0.975,3.604 -0.445,1.149 -1,2.218 -1.626,3.223 -0.642,0.98 -1.372,1.848 -2.166,2.596 -0.798,0.745 -1.667,1.306 -2.572,1.758 -0.911,0.421 -1.856,0.643 -2.827,0.761 0.916,0.305 1.895,0.416 2.896,0.274 0.999,-0.163 2.007,-0.559 2.989,-1.15 0.969,-0.639 1.895,-1.48 2.756,-2.485 0.848,-1.03 1.585,-2.263 2.232,-3.594 0.632,-1.348 1.126,-2.827 1.485,-4.362 0.335,-1.542 0.526,-3.131 0.564,-4.719 0.013,-1.583 -0.124,-3.147 -0.416,-4.631 -0.319,-1.467 -0.781,-2.841 -1.366,-4.087 z" id="path5" /></g><g id="strokes"><path d="m 285.321,101.422 c -0.979,1.339 -1.745,2.836 -2.237,4.416 -0.48,1.581 -0.714,3.248 -0.466,4.913 0.961,-1.375 1.761,-2.672 2.598,-3.922 0.825,-1.252 1.659,-2.454 2.525,-3.635 0.867,-1.179 1.762,-2.336 2.707,-3.5 0.94,-1.174 1.934,-2.328 2.953,-3.662 -1.665,0.262 -3.185,0.987 -4.547,1.923 -1.359,0.945 -2.555,2.127 -3.533,3.467 z" id="path9" style="fill:none;stroke:#000000;stroke-opacity:1;stroke-width:3;stroke-dasharray:none" /><path d="m 211.185,101.683 c -0.852,-1.424 -1.931,-2.712 -3.195,-3.781 -1.269,-1.058 -2.713,-1.923 -4.343,-2.344 0.892,1.421 1.775,2.663 2.6,3.921 0.831,1.248 1.614,2.484 2.363,3.741 0.748,1.258 1.465,2.533 2.169,3.857 0.714,1.323 1.39,2.689 2.222,4.147 0.407,-1.635 0.332,-3.318 0.001,-4.937 -0.342,-1.619 -0.964,-3.182 -1.817,-4.604 z" id="path8" style="fill:none;stroke:#000000;stroke-opacity:1;stroke-width:3;stroke-dasharray:none" /><path d="m 244.163,233.363 c 0.233,-0.078 0.449,-0.193 0.679,-0.273 1.652,-0.582 3.376,-0.945 5.042,-1.374 2.113,-0.592 4.231,-1.184 6.35,-1.777 1.311,-0.345 2.613,-0.83 3.97,-1.038 2.042,-0.322 4.124,-0.392 6.185,-0.225 1.237,0.113 2.42,0.57 3.627,0.753 2.443,0.446 4.877,0.956 7.329,1.664 0.58,0.165 1.102,0.474 1.614,0.785 0.346,0.24 0.867,0.282 1.201,0.499 -0.204,-0.156 -0.329,-0.276 -0.462,-0.385 -0.293,-0.25 -0.598,-0.486 -0.921,-0.69 -0.775,-0.538 -1.605,-0.993 -2.473,-1.358 -0.585,-0.247 -1.223,-0.341 -1.817,-0.548 -1.234,-0.453 -2.479,-0.916 -3.764,-1.255 -1.391,-0.369 -2.813,-0.631 -4.248,-0.809 -1.393,-0.175 -2.809,-0.355 -4.216,-0.218 -1.699,0.169 -3.344,0.683 -4.955,1.157 -0.239,0.066 -0.526,-0.109 -0.765,-0.032 -1.254,0.383 -2.462,0.893 -3.673,1.344 -0.503,0.177 -1.055,0.196 -1.558,0.379 -0.984,0.379 -1.922,0.868 -2.901,1.238 -1.514,0.567 -3.016,1.191 -4.392,2.054 -0.081,0.049 -0.176,0.101 -0.239,0.15 -0.083,0.066 -0.208,0.142 -0.217,0.143 -0.01,0.001 0.083,-0.032 0.175,-0.051 0.132,-0.029 0.289,-0.082 0.429,-0.133 z" id="path10" style="fill:none;stroke:#000000;stroke-opacity:1;stroke-width:1.5;stroke-dasharray:none" /><path d="m 263.871,156.813 c -0.167,-0.129 -0.35,-0.227 -0.521,-0.348 -0.597,-0.463 -1.228,-0.874 -1.867,-1.294 -0.625,-0.455 -1.306,-0.803 -1.995,-1.144 -1.797,-0.811 -3.752,-1.256 -5.716,-1.353 -0.604,-0.06 -1.215,-0.029 -1.823,0.034 -0.605,0.048 -1.207,0.095 -1.805,0.143 -1.808,0.06 -3.589,0.314 -5.372,0.561 -1.053,0.2 -2.194,0.101 -3.228,0.469 -1.061,0.308 -2.08,0.757 -3.062,1.255 -0.481,0.274 -0.951,0.567 -1.413,0.865 -0.455,0.311 -0.878,0.675 -1.313,1.002 -0.414,0.306 -0.852,0.569 -1.302,0.822 -0.325,0.165 -0.531,0.578 -0.827,0.74 0.198,-0.096 0.34,-0.141 0.476,-0.195 0.305,-0.119 0.603,-0.244 0.887,-0.387 0.695,-0.356 1.435,-0.618 2.106,-0.993 0.463,-0.231 0.884,-0.552 1.362,-0.762 0.494,-0.224 1.021,-0.371 1.545,-0.512 0.524,-0.142 1.044,-0.289 1.578,-0.384 1.138,-0.268 2.289,-0.444 3.435,-0.595 l 1.684,-0.105 c 0.56,-0.02 1.119,-0.022 1.672,-0.107 1.336,-0.169 2.695,-0.469 4.086,-0.551 0.207,-0.021 0.389,0.225 0.592,0.228 l 1.617,-0.033 c 0.539,0.015 1.079,0.055 1.619,0.11 0.45,0.037 0.839,0.321 1.273,0.411 0.426,0.101 0.87,0.147 1.298,0.25 0.427,0.108 0.851,0.23 1.263,0.385 1.267,0.504 2.466,1.128 3.732,1.658 0.074,0.031 0.158,0.07 0.223,0.089 0.088,0.025 0.202,0.074 0.207,0.079 0.005,0.006 -0.062,-0.043 -0.118,-0.098 -0.081,-0.076 -0.191,-0.165 -0.293,-0.24 z" id="path11" style="fill:none;stroke:#000000;stroke-opacity:1;stroke-width:1.6;stroke-dasharray:none" /><path d="m 236.616,269.26 c 0.758,-0.703 1.638,-1.263 2.385,-1.962 0.525,-0.445 1.009,-0.945 1.562,-1.362 0.571,-0.442 1.203,-0.795 1.836,-1.141 0.63,-0.35 1.252,-0.707 1.913,-0.994 1.388,-0.7 2.829,-1.271 4.272,-1.811 l 2.153,-0.645 c 0.722,-0.193 1.45,-0.355 2.154,-0.605 1.711,-0.553 3.43,-1.198 5.229,-1.605 0.265,-0.072 0.559,0.127 0.825,0.088 l 2.107,-0.379 c 0.708,-0.09 1.422,-0.149 2.139,-0.196 0.595,-0.053 1.175,0.171 1.764,0.192 0.58,0.035 1.169,0.001 1.751,0.046 0.581,0.052 1.163,0.118 1.738,0.218 1.772,0.35 3.495,0.862 5.249,1.322 0.103,0.026 0.22,0.061 0.308,0.074 0.118,0.016 0.278,0.057 0.286,0.062 0.009,0.007 -0.091,-0.04 -0.179,-0.094 -0.126,-0.076 -0.293,-0.156 -0.445,-0.224 -0.251,-0.118 -0.513,-0.203 -0.765,-0.314 -0.894,-0.436 -1.821,-0.786 -2.759,-1.145 -0.929,-0.398 -1.902,-0.642 -2.88,-0.894 -2.529,-0.555 -5.16,-0.651 -7.723,-0.315 -0.397,0.044 -0.793,0.096 -1.186,0.162 l -1.166,0.286 c -0.774,0.197 -1.546,0.371 -2.307,0.59 l -1.733,0.433 -1.704,0.529 c -1.149,0.31 -2.239,0.791 -3.367,1.17 -1.303,0.556 -2.761,0.829 -3.991,1.586 -1.285,0.686 -2.473,1.546 -3.613,2.442 -0.548,0.48 -1.081,0.977 -1.606,1.475 -0.512,0.513 -0.97,1.084 -1.45,1.619 -0.461,0.498 -0.94,0.976 -1.433,1.448 -0.36,0.319 -0.557,0.862 -0.88,1.169 0.222,-0.187 0.383,-0.296 0.534,-0.415 0.336,-0.264 0.667,-0.531 0.982,-0.81 z" id="path12" style="fill:none;stroke:#000000;stroke-opacity:1;stroke-width:1.5;stroke-dasharray:none" /><path d="m 266.915,264.094 c -0.158,-0.055 -0.322,-0.075 -0.481,-0.12 -0.569,-0.186 -1.145,-0.353 -1.728,-0.524 -0.582,-0.195 -1.175,-0.327 -1.773,-0.428 -1.541,-0.225 -3.109,-0.125 -4.625,0.194 -0.945,0.166 -1.834,0.616 -2.742,0.867 -1.379,0.37 -2.725,0.817 -4.085,1.228 -0.801,0.273 -1.723,0.27 -2.496,0.655 -1.592,0.705 -3.064,1.693 -4.29,2.95 -0.303,0.275 -0.649,0.484 -1.006,0.684 -0.259,0.129 -0.387,0.498 -0.621,0.626 0.158,-0.074 0.275,-0.105 0.385,-0.145 0.248,-0.087 0.488,-0.182 0.715,-0.293 0.562,-0.269 1.135,-0.507 1.657,-0.822 0.359,-0.199 0.655,-0.509 1.023,-0.697 0.77,-0.384 1.606,-0.637 2.42,-0.9 0.881,-0.295 1.769,-0.549 2.657,-0.788 0.872,-0.213 1.766,-0.306 2.606,-0.592 1.012,-0.35 2.002,-0.876 3.053,-1.23 0.155,-0.057 0.348,0.145 0.503,0.1 0.814,-0.252 1.638,-0.544 2.486,-0.688 0.35,-0.071 0.71,0.084 1.06,0.048 0.691,-0.079 1.389,-0.214 2.086,-0.169 1.077,0.066 2.136,0.216 3.227,0.206 0.064,0 0.137,0.004 0.19,-0.004 0.072,-0.011 0.171,-0.01 0.176,-0.006 0.006,0.004 -0.057,-0.015 -0.114,-0.045 -0.081,-0.037 -0.187,-0.077 -0.283,-0.107 z" id="path13" style="fill:none;stroke:#000000;stroke-opacity:1;stroke-width:1.5;stroke-dasharray:none" /><path d="m 225.898,317.151 c 0.041,0.306 0.004,0.632 -0.019,0.947 l -0.035,1.002 c -0.014,0.323 -0.135,0.656 -0.019,0.949 0.141,0.354 0.504,0.688 0.726,1.055 0.034,0.054 -0.186,0.131 -0.156,0.185 0.165,0.283 0.389,0.57 0.499,0.869 0.045,0.124 -0.106,0.253 -0.079,0.377 0.053,0.244 0.21,0.492 0.182,0.74 -0.026,0.383 -0.089,0.759 0.036,1.154 0.006,0.023 0.011,0.049 0.024,0.069 0.018,0.027 0.025,0.064 0.025,0.064 0,0 0.009,-0.02 0.033,-0.04 0.03,-0.028 0.058,-0.066 0.078,-0.1 0.037,-0.056 0.042,-0.115 0.068,-0.172 0.178,-0.406 0.586,-0.82 0.742,-1.256 0.211,-0.559 0.159,-1.131 0.006,-1.681 -0.086,-0.343 -0.402,-0.656 -0.505,-0.984 -0.154,-0.498 -0.279,-0.991 -0.339,-1.5 -0.038,-0.302 0.2,-0.674 0.095,-0.97 -0.174,-0.606 -0.514,-1.17 -1.093,-1.616 -0.12,-0.111 -0.141,-0.257 -0.149,-0.409 0.005,-0.112 -0.248,-0.136 -0.254,-0.235 -0.007,0.068 -0.031,0.121 -0.046,0.17 -0.035,0.11 -0.061,0.215 -0.06,0.309 -0.011,0.237 -0.029,0.472 0.015,0.685 0.019,0.148 0.202,0.242 0.225,0.388 z" id="path14" style="fill:none;stroke:#000000;stroke-opacity:1" /><path d="m 239.031,379.779 c -0.037,-0.123 -0.103,-0.228 -0.148,-0.345 -0.312,-0.848 -0.439,-1.78 -0.681,-2.627 -0.319,-1.086 -0.815,-2.067 -1.32,-3.064 -0.317,-0.611 -0.805,-1.171 -1.082,-1.814 -0.423,-0.966 -0.723,-1.981 -0.93,-3.013 -0.105,-0.624 0.065,-1.296 -0.058,-1.906 -0.217,-1.247 -0.558,-2.475 -1,-3.74 -0.103,-0.299 -0.077,-0.607 -0.042,-0.914 0.038,-0.215 -0.197,-0.452 -0.172,-0.655 -0.027,0.13 -0.066,0.217 -0.095,0.303 -0.066,0.194 -0.122,0.389 -0.157,0.583 -0.113,0.479 -0.135,0.96 -0.134,1.439 0,0.323 0.177,0.629 0.186,0.95 0.024,0.669 -0.025,1.352 -0.006,2.032 0.014,0.738 0.087,1.471 0.164,2.207 0.088,0.711 0.091,1.455 0.362,2.126 0.325,0.811 0.903,1.53 1.371,2.264 0.067,0.11 -0.099,0.308 -0.025,0.417 0.371,0.571 0.813,1.103 1.174,1.66 0.14,0.234 0.122,0.543 0.263,0.778 0.273,0.466 0.657,0.87 0.889,1.35 0.37,0.736 0.746,1.479 1.327,2.086 0.032,0.037 0.066,0.08 0.1,0.106 0.045,0.034 0.094,0.096 0.094,0.096 0,0.006 -0.017,-0.043 -0.023,-0.093 -0.01,-0.069 -0.032,-0.153 -0.057,-0.226 z" id="path15" style="fill:none;stroke:#000000;stroke-opacity:1;stroke-width:1.4;stroke-dasharray:none" /><path d="m 212.735,388.015 c -0.948,-2.648 -3.047,-4.711 -5.507,-5.729 -1.006,-0.424 -2.086,-0.838 -3.24,-0.758 -1.126,0.066 -2.234,0.599 -2.958,1.455 -0.715,0.867 -1.061,1.949 -1.159,3.018 -0.089,0.83 -0.028,1.668 0.137,2.482 0.077,0.409 0.196,0.808 0.33,1.202 0.137,0.384 0.3,0.808 0.646,1.122 0.719,0.644 1.779,0.489 2.478,0.026 0.739,-0.492 1.111,-1.303 1.343,-2.08 0.057,-0.184 0.118,-0.396 0.147,-0.55 0.039,-0.209 0.104,-0.496 0.111,-0.511 0.008,-0.017 -0.056,0.17 -0.129,0.339 -0.121,0.292 -0.227,0.549 -0.339,0.82 -0.2,0.443 -0.415,0.881 -0.735,1.227 -0.543,0.617 -1.476,0.875 -2.138,0.596 -0.329,-0.139 -0.523,-0.396 -0.657,-0.758 -0.13,-0.364 -0.234,-0.796 -0.305,-1.199 -0.288,-1.627 -0.101,-3.388 0.717,-4.546 1.011,-1.542 3.153,-1.62 4.975,-0.856 1.836,0.764 3.429,2.242 4.329,4.075 0.564,1.126 0.914,2.371 0.91,3.65 0.014,1.281 -0.345,2.594 -1.008,3.736 -1.009,1.726 -2.679,3.05 -4.648,3.53 -1.969,0.499 -4.083,0.315 -6.106,-0.126 -1.208,-0.263 -2.384,-0.709 -3.233,-1.448 -0.846,-0.722 -1.311,-1.764 -1.712,-2.893 -0.808,-2.337 -1.203,-4.833 -1.239,-7.333 -0.019,-2.495 0.269,-5.05 1.091,-7.463 0.396,-1.134 1.037,-2.195 1.863,-3.065 0.573,-0.598 1.176,-1.379 1.9,-1.754 -0.462,0.232 -0.77,0.392 -1.057,0.587 -0.646,0.429 -1.228,0.969 -1.726,1.575 -1.22,1.499 -2.013,3.314 -2.485,5.161 -0.329,1.25 -0.398,2.543 -0.512,3.816 -0.237,2.657 -0.114,5.381 0.555,8.011 0.355,1.393 0.839,2.941 2.065,4.132 1.229,1.169 2.8,1.649 4.22,1.992 1.395,0.329 2.842,0.582 4.348,0.575 1.497,-0.008 3.075,-0.293 4.471,-1.069 3.39,-1.898 5.013,-5.892 4.412,-9.398 -0.091,-0.51 0.03,-1.082 -0.155,-1.591 z" id="path16" style="stroke:#000000;stroke-opacity:1;fill:none;stroke-width:1.8;stroke-dasharray:none" /></g>
<g id="toes"><rect id="hitbox-toes" fill="#000000" fill-opacity="0.01" stroke="none" pointer-events="all" /><path style="fill:#999999;fill-opacity:0.988701;stroke-width:0.60024" d="m 187.27488,459.52477 c -7.55797,-2.55179 -9.45803,-4.8101 -8.16594,-9.70557 1.06581,-4.03816 2.38575,-6.41718 4.58902,-8.27111 3.25119,-2.7357 5.9773,-1.89407 9.43332,2.91233 l 1.71391,2.3836 -1.51331,2.70762 c -1.06679,1.90868 -1.60805,3.97389 -1.83437,6.99902 l -0.32104,4.2914 z" id="path19" /><path style="fill:#999999;fill-opacity:0.988701;stroke-width:0.60024" d="m 200.38933,464.98226 c -1.53557,-0.42956 -3.51958,-1.25779 -4.40892,-1.84051 -1.42351,-0.93271 -1.57074,-1.32265 -1.23054,-3.25908 0.58007,-3.30187 2.71218,-9.63564 4.33422,-12.8755 2.72439,-5.4417 7.41509,-6.59497 11.34224,-2.78862 2.07889,2.01494 5.24486,8.87293 6.3936,13.84954 0.67054,2.90495 0.63767,3.08341 -0.76676,4.16289 -3.46252,2.66138 -11.15513,4.01255 -15.66384,2.75128 z" id="path20" /><path style="fill:#999999;fill-opacity:0.988701;stroke-width:0.60024" d="m 222.50766,460.6029 c -0.23035,-0.23035 -0.42524,-1.25166 -0.43307,-2.26957 -0.0171,-2.22347 -2.23968,-7.81885 -4.1984,-10.56962 l -1.41497,-1.98714 2.27367,-1.96544 c 2.5708,-2.22228 4.91367,-2.92608 7.885,-2.36865 3.9724,0.74522 6.9154,4.37572 8.85737,10.92648 l 0.9158,3.08924 -6.10169,2.5299 c -3.35593,1.39144 -6.38591,2.64323 -6.73329,2.78176 -0.34737,0.13853 -0.82006,0.0634 -1.05042,-0.16696 z" id="path21" /><path style="fill:#999999;fill-opacity:0.988701;stroke-width:0.60024" d="m 256.02027,409.60723 c -1.31069,-0.47983 -3.15354,-1.60875 -4.09522,-2.50873 -1.54944,-1.48083 -1.67395,-1.89223 -1.31032,-4.32949 1.12937,-7.56959 5.05788,-8.98511 9.42798,-3.3971 1.57608,2.01532 1.60504,2.17836 0.7503,4.22403 -0.48897,1.1703 -0.88905,3.21691 -0.88905,4.54805 0,2.69631 -0.254,2.79201 -3.88369,1.46324 z" id="path22" /><path style="fill:#999999;fill-opacity:0.988701;stroke-width:0.60024" d="m 265.30612,412.81265 c -2.712,-0.96538 -2.96828,-2.81538 -1.11661,-8.06047 1.75569,-4.97321 3.39964,-6.793 6.13663,-6.793 2.62687,0 4.77714,2.38779 6.06962,6.74005 1.5213,5.12276 1.29732,6.18198 -1.54792,7.32042 -3.43043,1.37258 -7.06496,1.67465 -9.54172,0.793 z" id="path23" /><path style="fill:#999999;fill-opacity:0.988701;stroke-width:0.60024" d="m 281.51261,408.72472 c 0,-1.01173 -0.57625,-3.17904 -1.28056,-4.81624 -1.19753,-2.78374 -1.21584,-3.04824 -0.28233,-4.07975 1.59213,-1.75928 5.48554,-3.2702 7.27165,-2.82191 1.98451,0.49808 4.04927,4.82381 3.78028,7.91978 -0.1786,2.05562 -0.34871,2.19656 -4.68712,3.88313 -2.47599,0.96254 -4.56933,1.75108 -4.65186,1.75229 -0.0825,10e-4 -0.15006,-0.82557 -0.15006,-1.8373 z" id="path24" /><path style="fill:#999999;fill-opacity:0.988701;stroke-width:0.60024" d="m 293.51741,402.32424 c 0,-0.33225 1.06145,-1.30652 2.35877,-2.16505 2.51831,-1.66654 5.47765,-5.55215 6.47567,-8.50253 0.58517,-1.72989 0.62684,-1.66469 1.05939,1.65745 0.51439,3.95064 -0.28883,6.6243 -2.40699,8.01218 -1.64395,1.07716 -7.48684,1.85598 -7.48684,0.99795 z" id="path27" /><path style="fill:#999999;fill-opacity:0.988701;stroke-width:0.60024" d="m 310.17407,401.73647 c -2.85516,-0.74906 -3.44896,-1.12761 -3.43736,-2.19132 0.0196,-1.79445 3.01236,-6.99651 4.63223,-8.05171 1.24726,-0.81249 1.4652,-0.74597 3.0012,0.91598 0.91095,0.98565 2.45468,3.28568 3.4305,5.11119 1.50785,2.82076 1.65452,3.46334 0.97693,4.2798 -0.982,1.18323 -3.93335,1.16129 -8.6035,-0.0639 z" id="path28" /></g><g id="body"><rect id="hitbox-body" fill="#000000" fill-opacity="0.01" stroke="none" pointer-events="all" /><path style="fill:#999999;fill-opacity:0.988701;stroke-width:0.60024" d="m 231.39256,384.15275 c -12.42134,-1.86819 -23.01198,-9.30874 -30.21633,-21.22876 -2.41217,-3.99108 -4.86384,-9.79781 -4.88347,-11.56643 -0.026,-2.33915 10.46092,-8.00459 14.86267,-8.02941 1.27271,-0.007 1.43246,-0.13665 0.72932,-0.59106 -0.49519,-0.32002 -2.11984,-0.58599 -3.61033,-0.59105 -2.76791,-0.009 -5.27572,1.04708 -10.00031,4.21281 -2.05562,1.37737 -2.56822,1.51768 -2.85114,0.7804 -0.69451,-1.80986 -0.32091,-3.1284 1.0056,-3.54903 0.7428,-0.23555 2.32822,-1.04523 3.52316,-1.79929 1.19495,-0.75407 3.17995,-1.56001 4.41112,-1.79097 1.56342,-0.2933 1.99432,-0.57468 1.42882,-0.93306 -1.48056,-0.93826 -4.38755,-0.54911 -7.23954,0.96911 -1.55038,0.82533 -2.99164,1.5006 -3.20281,1.5006 -0.71385,0 0.46401,-6.276 1.97139,-10.5042 3.42483,-9.60661 10.69007,-17.29931 18.31557,-19.3932 l 2.25092,-0.61809 2.12326,3.19881 c 1.16778,1.75934 2.47838,4.37113 2.91245,5.80397 l 0.7892,2.60515 0.47886,-2.37463 c 0.34953,-1.73333 0.23605,-2.78701 -0.4202,-3.90156 -0.49447,-0.83981 -1.49352,-2.51692 -2.2201,-3.72692 l -1.32106,-2.19999 4.08088,-0.4402 c 7.77191,-0.83833 13.19636,1.38276 15.93712,6.52561 1.92236,3.60719 1.86905,13.595 -0.11048,20.69929 -0.76285,2.73778 -1.58855,4.89864 -1.83488,4.80193 -0.24634,-0.0967 -2.26258,-2.20166 -4.48053,-4.67765 -2.21796,-2.47599 -4.57807,-5.10954 -5.24469,-5.85234 -1.44791,-1.61336 -5.4959,-1.85847 -7.50081,-0.45417 -1.78475,1.25008 -7.21118,10.44121 -7.69867,13.03978 -0.53409,2.84695 1.30138,7.00155 3.98809,9.02705 2.64874,1.99688 11.19141,4.64785 14.97754,4.64785 7.77049,0 11.104,-4.6386 8.10806,-11.28241 -1.10179,-2.44335 -1.0997,-2.53021 0.14339,-5.9527 4.9501,-13.62872 4.39004,-22.95654 -2.3709,-39.48758 -2.79027,-6.82244 -5.34414,-11.79842 -15.40336,-30.01201 -5.87804,-10.64299 -6.61042,-13.72618 -7.34303,-30.91236 -0.56725,-13.30711 -1.71363,-28.87324 -2.16237,-29.36175 -1.05453,-1.148 -1.92711,4.61015 -1.98664,13.10983 l -0.0438,6.2571 -1.35873,-1.27647 c -1.82717,-1.71653 -5.36681,-3.13741 -7.77565,-3.12129 -3.08735,0.0207 -6.72343,1.98204 -8.24829,4.44931 -0.74893,1.21181 -1.47515,2.08985 -1.6138,1.9512 -0.13865,-0.13865 0.43356,-2.61812 1.27157,-5.50992 1.24056,-4.28092 1.41301,-5.6619 0.92815,-7.43254 -0.85229,-3.11245 -3.00415,-6.4586 -3.56738,-5.54728 -0.31061,0.50258 -1.15484,-0.0483 -2.70699,-1.76632 -3.73228,-4.13119 -4.77374,-7.6234 -5.75532,-19.29862 -1.14973,-13.67515 -3.68352,-25.24022 -11.34732,-51.79299 -3.00625,-10.41574 -3.63821,-13.38693 -3.63854,-17.10684 -5.3e-4,-5.98834 1.73941,-16.5811 3.96841,-24.159664 0.26896,-0.914457 -0.13792,-1.05042 -3.14343,-1.05042 -7.53215,0 -13.39034,5.463664 -20.64003,19.250004 -4.12647,7.84708 -4.8462,8.85852 -7.74449,10.88335 -2.22154,1.55204 -4.60493,4.20582 -7.82123,8.70853 -3.09724,4.33603 -5.5765,7.12092 -7.50219,8.42702 -2.64304,1.79265 -2.74663,1.95078 -1.27794,1.95078 0.87904,0 2.32763,-0.37803 3.2191,-0.84006 1.72793,-0.89556 7.52378,-6.75873 10.95097,-11.07816 1.14094,-1.43798 3.05614,-3.11572 4.25599,-3.72832 3.73275,-1.9058 5.63826,-4.42379 10.43719,-13.79196 5.02699,-9.81338 8.0256,-14.09989 11.26329,-16.10089 2.17398,-1.3436 4.32251,-1.66122 4.90138,-0.72459 0.18857,0.30511 -0.47097,4.58857 -1.46564,9.51879 -0.99467,4.93022 -1.97502,10.9606 -2.17855,13.40084 -0.42432,5.08738 -0.21887,6.16043 6.76238,35.3201 4.43996,18.54505 4.519,19.01109 3.82244,22.53806 -2.07458,10.50444 -11.13374,28.94776 -21.22789,43.21729 -3.34936,4.73481 -9.71564,12.50325 -11.95212,14.58456 l -1.48211,1.37928 -0.36564,-1.82818 c -0.2011,-1.00551 -0.64781,-7.97373 -0.99269,-15.48493 -1.07273,-23.36331 -2.32777,-31.22422 -6.30616,-39.49856 -2.22196,-4.62127 -3.64244,-6.52205 -9.50086,-12.71331 -8.54637,-9.03193 -9.68567,-11.43117 -9.24669,-19.47239 0.52664,-9.64681 4.33982,-15.18485 16.2185,-23.55477 10.06196,-7.08983 14.41669,-12.84844 22.56632,-29.841245 4.89496,-10.2065 6.22919,-12.094205 10.65646,-15.077062 4.01145,-2.702695 5.5828,-2.804183 8.13331,-0.525301 1.53994,1.375934 1.91878,2.166521 1.8696,3.90156 -0.0339,1.196779 0.16477,2.175962 0.44153,2.175962 0.66398,0 3.53753,-6.108031 6.21248,-13.205282 2.85215,-7.567411 5.89972,-12.653389 10.27233,-17.143134 4.15505,-4.266356 11.43155,-9.209417 16.3822,-11.128733 7.08331,-2.746129 20.80087,-2.011456 36.11622,1.93428 l 6.88017,1.772558 7.22547,-1.819486 c 15.29222,-3.850818 27.54493,-4.649885 34.5711,-2.254573 2.16494,0.738058 5.49143,2.284206 7.39218,3.435884 10.92716,6.62083 16.50536,13.743335 21.38393,27.304045 1.06892,2.971188 2.62971,6.685174 3.46845,8.253301 1.55481,2.906921 2.93682,3.853571 2.35004,1.609733 -0.78476,-3.000924 2.19368,-6.561714 5.48858,-6.561714 2.05936,0 8.10257,4.569465 10.06882,7.613366 1.02706,1.589959 3.90306,7.07751 6.3911,12.194561 7.74275,15.92414 10.50056,19.4013 22.37897,28.21632 8.45433,6.27399 10.80348,8.77598 13.33178,14.19911 1.43224,3.07212 1.63408,4.24115 1.64106,9.50533 0.0107,8.07918 -0.84756,9.80586 -9.28173,18.673 -12.13932,12.76248 -14.11839,19.35087 -15.62215,52.00655 -0.34589,7.5112 -0.79342,14.47942 -0.99452,15.48493 l -0.36564,1.82818 -1.48211,-1.37928 c -2.23648,-2.08131 -8.60276,-9.84975 -11.95212,-14.58456 -10.09915,-14.27661 -19.16533,-32.73745 -21.22414,-43.21729 -0.69815,-3.55375 -0.63352,-3.90746 4.88065,-26.71069 6.66413,-27.55869 6.78032,-28.98352 3.61365,-44.31319 -1.04515,-5.05954 -1.74599,-9.4488 -1.55742,-9.75391 0.66477,-1.07562 3.12094,-0.53457 5.54512,1.2215 3.14954,2.28152 6.24114,6.86992 10.92572,16.21543 4.58347,9.14378 5.8043,10.79063 9.48384,12.79328 1.58331,0.86175 3.801,2.72855 4.92818,4.14844 3.40922,4.29452 9.20446,10.15304 10.92596,11.04527 0.89147,0.46203 2.37707,0.82812 3.30132,0.81353 1.67619,-0.0265 1.67494,-0.0294 -0.4935,-1.17535 -2.35398,-1.24394 -5.522,-4.8042 -9.37269,-10.53313 -2.67369,-3.97781 -4.02291,-5.3775 -7.69995,-7.98798 -1.9802,-1.40582 -3.27584,-3.34138 -6.87692,-10.27337 -7.08287,-13.63439 -13.07934,-19.223324 -20.62503,-19.223324 -3.00552,0 -3.41239,0.135963 -3.14344,1.05042 2.22799,7.575144 3.96801,18.165424 3.97122,24.170064 0.002,3.413 -0.51427,6.26435 -2.11857,11.70468 -3.5871,12.16427 -8.5832,30.90602 -9.83781,36.90437 -2.16283,10.34059 -2.54792,13.39095 -2.99254,23.70455 -0.33612,7.79692 -0.68132,10.66889 -1.46101,12.15541 -0.5615,1.07052 -1.3261,1.88084 -1.69909,1.80072 -0.98863,-0.21236 -3.40336,3.54555 -3.86727,6.01845 -0.28083,1.49697 0.0823,3.79574 1.22402,7.74858 3.05791,10.58702 3.26297,16.062 0.37268,9.95049 -3.44038,-7.27469 -9.86813,-10.42007 -14.95564,-7.31845 l -2.02431,1.23413 0.38238,-2.58691 c 0.85017,-5.75155 -1.842,-31.09833 -3.30306,-31.09833 -0.31454,0 -0.35135,1.82664 -0.0877,4.35174 0.58318,5.58546 0.52988,30.03762 -0.0722,33.09621 l -0.45938,2.33389 -2.50825,-2.42309 c -3.44234,-3.32548 -8.25938,-6.26236 -13.6127,-8.29948 -4.10785,-1.56318 -5.15837,-1.71003 -12.0048,-1.67815 -6.83024,0.0318 -7.98269,0.20421 -12.85285,1.92282 -6.25574,2.20756 -12.40632,5.72325 -15.32612,8.76045 -2.50825,2.6091 -1.97319,2.80091 1.05331,0.37757 3.07102,-2.45899 11.75823,-6.42201 17.35148,-7.91558 5.50777,-1.47075 12.87608,-1.70666 17.5773,-0.56275 3.73038,0.90767 12.90083,5.29964 15.9976,7.66166 4.39215,3.35005 4.44418,3.59965 2.72987,13.095 -2.10546,11.66187 -2.09593,21.86047 0.0353,37.81513 0.88199,6.60264 1.75491,14.43577 1.93981,17.40696 0.1849,2.97119 0.48296,7.4955 0.66236,10.05402 0.29564,4.21633 0.22397,4.65201 -0.76549,4.65347 -0.60042,8.9e-4 -4.33297,0.83984 -8.29455,1.86433 -6.77316,1.75157 -7.84748,1.86192 -18.00721,1.84968 -10.05509,-0.0121 -10.62272,0.0446 -8.18551,0.81829 1.44034,0.45721 6.03218,1.00546 10.20408,1.21834 7.23499,0.36916 7.91078,0.3001 14.63386,-1.49537 3.87672,-1.03533 7.74335,-2.14656 8.59249,-2.46941 0.84916,-0.32284 1.70334,-0.58699 1.89819,-0.58699 0.5188,0 -0.32451,16.66691 -1.03551,20.46526 -0.9029,4.82358 -2.82958,10.46176 -5.24266,15.34197 -1.94965,3.94299 -2.28915,4.31674 -3.70258,4.07616 -9.16358,-1.55975 -12.72631,-2.38042 -14.7614,-3.40026 -2.81877,-1.41257 -11.18969,-7.52366 -11.88456,-8.67618 -0.57497,-0.95364 -1.62084,-1.05488 -1.62084,-0.15691 0,0.94337 6.44294,6.98811 9.90396,9.29186 3.35165,2.23095 8.06258,3.59592 14.54242,4.21359 l 4.33832,0.41355 -1.29281,1.87454 c -0.71104,1.031 -1.34898,1.9558 -1.41765,2.05511 -0.0686,0.0993 -3.26162,-0.40403 -7.09546,-1.11852 -7.22463,-1.3464 -10.71761,-2.91496 -16.16742,-7.26013 -3.14497,-2.50751 -3.42747,-1.74542 -0.51888,1.39976 4.26495,4.61187 8.1743,6.49704 15.84716,7.6418 l 6.75213,1.0074 -2.97421,3.17967 c -8.01177,8.56522 -18.95022,14.95514 -29.27653,17.10245 -8.0555,1.67512 -7.36795,1.81238 -10.27191,-2.05073 -1.5366,-2.04414 -3.2977,-5.4562 -4.29534,-8.32208 -1.60381,-4.60717 -2.68362,-6.13415 -2.68362,-3.79494 0,0.58437 0.55794,3.08287 1.23987,5.55222 0.89962,3.25765 1.89776,5.27217 3.63717,7.34088 2.69298,3.2028 2.7419,3.1702 -3.37644,2.24999 z m 7.29763,-6.65282 c -0.44427,-1.4575 -1.39014,-3.72642 -2.10192,-5.04206 -0.71178,-1.31564 -1.29936,-3.07135 -1.30573,-3.90156 -0.006,-0.83022 -0.37727,-2.86003 -0.82423,-4.51069 -0.62785,-2.31871 -0.91684,-2.75184 -1.27081,-1.90468 -0.76883,1.84004 0.20736,9.20217 1.50381,11.34127 0.656,1.08239 1.37406,2.37313 1.59568,2.86833 0.67355,1.50498 2.72421,4.28612 2.97524,4.03508 0.12964,-0.12964 -0.12778,-1.4282 -0.57204,-2.88569 z m -10.53587,-54.57076 c 0.39594,-2.18152 -1.59497,-8.04012 -2.53485,-7.45924 -0.52354,0.32356 -0.25974,2.56334 0.79405,6.74179 0.61317,2.43133 1.37291,2.74444 1.7408,0.71745 z m 10.68048,-55.00778 c 8.24082,-6.831 22.91464,-10.36693 32.32366,-7.789 4.21401,1.15457 4.01769,0.19167 -0.30012,-1.47203 -6.49139,-2.50121 -16.97365,-1.25799 -26.28101,3.11699 -2.8685,1.34835 -8.30083,5.89486 -9.321,7.80107 -0.9459,1.76743 -0.0552,1.35498 3.57847,-1.65703 z m 12.43755,-0.81407 c 0.36965,-2.6e-4 2.39547,-0.5581 4.5018,-1.23965 2.31334,-0.74852 5.46048,-1.24482 7.9484,-1.25344 5.44159,-0.0189 4.42147,-1.27718 -1.29738,-1.60033 -4.91623,-0.27779 -13.18474,2.05133 -16.94031,4.77185 -3.55419,2.57464 -2.88964,3.10905 1.36388,1.0968 2.06332,-0.97612 4.05395,-1.77497 4.42361,-1.77523 z m 10.80518,-38.158 c 2.76686,-0.41492 13.65782,1.64307 16.58393,3.13375 0.90787,0.46251 1.65066,0.59494 1.65066,0.29429 0,-1.68205 -8.72017,-4.81754 -14.70588,-5.28774 -4.68537,-0.36806 -8.91565,0.51817 -16.60182,3.47801 -7.84587,3.02133 -6.64194,3.58606 2.29419,1.07613 4.52909,-1.2721 9.3796,-2.48461 10.77892,-2.69444 z m -70.35242,-44.65158 c -5.03531,-2.24125 -8.43291,-8.88945 -7.93276,-15.52229 0.6486,-8.60141 6.19102,-12.56647 11.89162,-8.50728 2.40102,1.70967 2.26931,2.4301 -0.3001,1.64152 -2.52307,-0.77435 -5.80423,0.299 -4.59883,1.5044 0.95586,0.95586 0.86883,4.35901 -0.13273,5.19024 -0.45335,0.37625 -1.26368,0.51548 -1.80072,0.30939 -0.81529,-0.31285 -0.97644,0.0849 -0.97644,2.40989 0,3.59683 1.15761,6.29985 3.56588,8.32626 2.29913,1.9346 4.69474,2.07972 6.81392,0.41277 2.05115,-1.61344 2.83058,-4.22804 2.96489,-9.94573 0.12605,-5.36671 -1.34072,-9.67965 -4.23459,-12.45148 -7.14739,-6.84597 -15.49888,-1.72332 -16.19012,9.93075 -0.58321,9.83245 4.41133,17.94325 10.98158,17.83336 l 2.40096,-0.0402 z m 120.86233,-0.025 c 4.39841,-2.68172 7.09321,-9.61996 6.60997,-17.01852 -0.59571,-9.12041 -6.20333,-14.62541 -12.30271,-12.07754 -5.4524,2.27761 -8.28928,7.50079 -8.11454,14.94023 0.13431,5.71769 0.91374,8.33229 2.96489,9.94573 2.11918,1.66695 4.51479,1.52183 6.81392,-0.41277 2.40827,-2.02641 3.56588,-4.72943 3.56588,-8.32626 0,-2.32501 -0.16115,-2.72274 -0.97644,-2.40989 -0.53704,0.20609 -1.34737,0.0669 -1.80072,-0.30939 -1.00156,-0.83123 -1.08859,-4.23438 -0.13273,-5.19024 1.2054,-1.2054 -2.07576,-2.27875 -4.59883,-1.5044 -2.56941,0.78858 -2.70112,0.0681 -0.3001,-1.64152 4.02173,-2.86373 8.31941,-1.73364 10.55794,2.77621 1.81645,3.65952 1.59139,11.02178 -0.4563,14.92681 -1.83648,3.50224 -3.57838,5.24585 -6.4945,6.5009 l -2.10084,0.90417 2.40096,0.0467 c 1.41477,0.0275 3.20734,-0.44493 4.36415,-1.15024 z M 242.497,155.5544 c 1.81573,-0.35661 5.46218,-0.81256 8.10324,-1.01322 3.99792,-0.30376 5.40492,-0.15111 8.40336,0.91165 1.98079,0.70207 4.14166,1.4166 4.80192,1.58784 l 1.20048,0.31133 -1.20048,-1.01328 c -0.66026,-0.55731 -2.66023,-1.69668 -4.44437,-2.53193 -3.04476,-1.4254 -3.63989,-1.49597 -9.6947,-1.14954 -7.09859,0.40615 -10.23276,1.25254 -13.80488,3.72801 -3.26134,2.26012 -2.97526,3.00532 0.48297,1.25806 1.56813,-0.79229 4.33673,-1.73231 6.15246,-2.08892 z m -28.81153,-46.23719 c 0,-2.83432 -1.68779,-7.48168 -3.52267,-9.699762 -1.80819,-2.185802 -5.75824,-4.702275 -6.38977,-4.070748 -0.1958,0.195798 0.9415,2.344838 2.52732,4.77564 1.58583,2.43081 3.68488,5.95238 4.66455,7.82571 1.86931,3.57447 2.72057,3.9403 2.72057,1.16916 z m 71.66569,-1.91188 c 1.28588,-1.99573 3.67699,-5.30219 5.31359,-7.34769 2.18533,-2.731352 2.73087,-3.768587 2.05408,-3.905417 -2.24665,-0.454208 -6.88348,3.322059 -8.87683,7.229347 -1.27569,2.50055 -2.19342,7.66582 -1.36056,7.6576 0.29247,-0.003 1.58385,-1.63812 2.86972,-3.63384 z" id="path17" /><path style="fill:#999999;fill-opacity:0.988701;stroke-width:0.60024" d="m 237.90408,449.03169 c -0.61015,-0.96174 -2.93289,-3.77703 -5.16164,-6.25619 -4.40486,-4.89976 -6.85276,-6.19693 -10.42842,-5.52614 -2.26766,0.42542 -6.5455,3.89272 -7.14912,5.79455 -0.36494,1.14984 -0.41601,1.14696 -2.4993,-0.14058 -4.26683,-2.63705 -9.98187,-2.492 -13.70509,0.34784 l -1.84387,1.40639 -1.36637,-2.97839 c -2.16062,-4.70971 -6.25589,-6.48319 -10.22783,-4.42921 -0.93107,0.48147 -2.94347,2.26639 -4.47199,3.96648 -1.54217,1.71526 -2.77914,2.68322 -2.77914,2.17474 0,-0.50399 0.97976,-3.97707 2.17725,-7.71798 1.7934,-5.60251 2.22952,-7.9794 2.47372,-13.48197 0.32301,-7.27825 -0.47036,-20.68355 -2.25117,-38.03757 -0.62672,-6.10744 -1.44051,-14.88595 -1.80842,-19.5078 -1.29225,-16.2339 -3.23834,-28.91896 -6.31187,-41.14223 -2.02137,-8.03888 -3.09325,-15.30448 -4.20244,-28.48562 -0.52783,-6.27251 -1.34723,-14.22019 -1.8209,-17.66151 -1.16738,-8.48131 -1.34366,-7.84927 2.07631,-7.44423 2.6428,0.313 3.03341,0.20155 3.89331,-1.11081 3.07392,-4.69139 4.91152,-16.45325 3.42582,-21.92748 -0.98601,-3.6331 -4.09261,-7.44452 -7.41182,-9.09344 -5.71046,-2.83684 -7.30267,-0.68827 -6.95775,9.38894 0.16842,4.92069 0.47999,6.89474 1.28121,8.11755 2.07598,3.16835 5.83291,1.13897 5.83291,-3.15076 0,-1.30105 -0.25411,-2.52259 -0.56469,-2.71454 -0.33345,-0.20608 -0.42868,0.48912 -0.23255,1.69773 0.25921,1.59732 0.0396,2.33926 -1.00022,3.37908 -1.22394,1.22393 -1.41089,1.25384 -2.29727,0.36746 -1.19009,-1.19009 -1.76321,-11.76938 -0.77576,-14.31978 1.30685,-3.37534 6.08943,-0.94216 8.84792,4.50146 2.24449,4.42929 2.47902,8.76046 0.83473,15.41506 -1.55235,6.2825 -2.93235,8.50477 -4.96169,7.98999 -2.30822,-0.58552 -3.922,-1.94167 -4.31769,-3.62838 -0.20889,-0.89049 -2.32795,-5.66706 -4.709,-10.6146 -4.03995,-8.39454 -4.3434,-9.30563 -4.54196,-13.63699 -0.27398,-5.97649 0.49233,-8.17145 5.96658,-17.09012 5.49583,-8.95383 10.0199,-18.43396 12.83902,-26.90401 2.1679,-6.51347 2.94466,-8.07435 3.66143,-7.35758 0.20103,0.20102 0.88719,3.42431 1.5248,7.16286 1.38678,8.13123 3.52408,13.04706 7.13088,16.4012 1.42,1.32053 3.21694,2.99643 3.9932,3.72422 1.73319,1.62496 1.74786,2.29563 0.13792,6.30758 -3.03009,7.55097 -3.55094,11.80154 -2.00432,16.35699 0.86211,2.53929 0.81553,3.59431 -0.6966,15.77728 -3.29247,26.52686 -1.73025,43.62318 5.72837,62.68892 l 2.50982,6.41561 -1.16532,2.28787 c -3.26659,6.41325 -4.44596,16.14416 -2.85984,23.5964 1.95357,9.17862 8.58658,19.64879 16.6981,26.35788 4.82335,3.98941 11.77858,7.34093 19.36152,9.32974 6.46301,1.69508 10.58103,3.74704 12.06499,6.01185 0.81531,1.24433 0.84425,2.2114 0.22545,7.53409 -0.40161,3.45458 -0.5932,10.18651 -0.44114,15.50131 l 0.26877,9.39478 2.4663,5.70228 c 2.59033,5.98904 3.54182,10.56963 2.90295,13.97509 -0.41306,2.20182 -4.15972,7.03331 -5.45408,7.03331 -0.43705,0 -1.29386,-0.78688 -1.90401,-1.74862 z m -29.63273,-49.7229 c 3.25594,-1.63584 4.81388,-4.45802 4.81388,-8.72023 0,-3.4294 -0.11611,-3.70777 -2.57038,-6.16204 -5.78232,-5.78232 -12.60237,-2.77757 -10.59725,4.66889 0.48982,1.81904 0.89108,2.26113 2.05229,2.26113 0.81116,0 1.85273,-0.58436 2.37783,-1.33404 1.31933,-1.8836 1.14118,-2.87121 -0.20263,-1.12329 -0.71299,0.92742 -1.46,1.31005 -2.08749,1.06927 -1.42805,-0.548 -1.28366,-4.30785 0.22331,-5.81482 1.42533,-1.42532 1.9416,-1.4705 4.08143,-0.35715 5.58849,2.90769 6.51764,9.68908 1.78889,13.05625 -2.15692,1.53586 -7.2251,1.67825 -9.93094,0.27901 -4.83433,-2.49993 -5.59153,-14.81903 -1.27696,-20.77512 1.26235,-1.74263 1.47402,-2.30903 0.71014,-1.90021 -3.36004,1.79824 -4.98131,6.11798 -4.96322,13.22407 0.0238,9.34794 2.71209,12.40609 11.09126,12.61726 1.32053,0.0333 3.34096,-0.41176 4.48984,-0.98898 z" id="path18" /><path style="fill:#999999;fill-opacity:0.988701;stroke-width:0.60024" d="m 290.88805,397.91896 c -1.30492,-2.20904 -4.29184,-4.15697 -6.37424,-4.15697 -1.89885,0 -5.04922,1.90004 -6.28988,3.79353 l -0.95294,1.45437 -2.20779,-1.12559 c -2.80587,-1.43052 -5.76841,-1.41123 -9.00658,0.0586 l -2.55083,1.15786 -0.88856,-1.71829 c -1.17638,-2.27486 -3.72678,-4.22525 -5.5251,-4.22525 -2.0989,0 -4.65761,1.48756 -6.43242,3.73961 l -1.54676,1.96267 -0.007,-4.97126 c -0.0105,-7.81186 0.38881,-8.36988 8.36377,-11.68893 16.28716,-6.77846 29.06064,-19.22433 35.2096,-34.30657 2.97467,-7.29629 3.79435,-11.97054 4.43026,-25.26373 0.62112,-12.98387 1.07023,-17.55022 1.76857,-17.98182 0.24569,-0.15184 0.96318,2.2113 1.59443,5.25143 0.96831,4.66346 1.14772,8.1078 1.14772,22.03411 0,18.29992 0.3381,20.27464 3.72031,21.72884 0.92502,0.39772 1.77264,0.78173 1.88361,0.85336 0.11096,0.0716 -0.23266,2.11028 -0.76361,4.53033 -0.53095,2.42004 -1.479,8.4517 -2.10678,13.40368 -0.62779,4.95198 -1.55489,9.94898 -2.06023,11.10444 -1.35538,3.09908 -9.0795,15.80727 -9.74197,16.02809 -0.31332,0.10444 -1.06209,-0.64371 -1.66393,-1.66255 z" id="path25" /><path style="fill:#999999;fill-opacity:0.988701;stroke-width:0.60024" d="m 320.86174,400.14063 c 0.63476,-2.52909 -0.78712,-6.11095 -3.34218,-8.41929 -3.32594,-3.00479 -6.40206,-2.90022 -9.96532,0.33875 l -1.26929,1.15377 -0.31038,-2.75374 c -0.17071,-1.51455 -0.73663,-3.22472 -1.25759,-3.80037 -0.86794,-0.95907 -0.79486,-1.47183 0.87336,-6.12811 4.25145,-11.86648 5.32175,-16.82513 5.3295,-24.69144 0.004,-4.10512 0.2159,-4.96558 1.95531,-7.94135 1.07293,-1.83555 2.15336,-3.34269 2.40096,-3.3492 0.2476,-0.007 0.45018,0.75854 0.45018,1.70012 0,2.27593 2.31735,5.60639 4.26097,6.12378 1.94265,0.51715 5.5888,-0.69097 7.49771,-2.4843 2.31657,-2.1763 4.4478,-7.04634 4.4478,-10.16358 0,-3.83103 -2.57598,-8.73939 -5.899,-11.24015 -3.79398,-2.85519 -4.22967,-2.38817 -0.84639,0.90724 5.12898,4.99579 6.13068,10.40744 2.96672,16.02767 -1.50157,2.66728 -4.72122,5.11979 -6.72126,5.11979 -2.01516,0 -3.44785,-2.04755 -3.76863,-5.38595 -0.53349,-5.55212 4.04258,-12.32447 6.26965,-9.27877 1.14858,1.57078 0.97875,4.10831 -0.38448,5.74468 l -1.18051,1.41703 -0.0606,-2.10084 c -0.0553,-1.91795 -0.11581,-1.9866 -0.69488,-0.78852 -0.66606,1.37805 -0.22345,4.38997 0.64512,4.38997 1.14306,0 3.66912,-3.27658 4.03672,-5.2361 0.58176,-3.10104 -1.02086,-6.16847 -3.2228,-6.16847 -0.92228,0 -2.27719,0.42048 -3.01091,0.9344 -1.58166,1.10784 -1.5573,1.23926 -0.45906,-2.47611 1.39231,-4.71025 2.60429,-12.62433 3.02714,-19.76681 0.38999,-6.58737 0.39974,-6.62068 4.21515,-14.40576 2.31288,-4.71926 4.45222,-10.17533 5.41319,-13.80552 0.87391,-3.30133 2.94186,-9.24029 4.59544,-13.19771 3.85096,-9.2163 4.85085,-13.87408 4.83365,-22.51658 -0.0171,-8.59098 -2.33232,-20.56674 -3.36521,-17.40696 -0.16187,0.49519 -0.60668,6.43577 -0.98845,13.20129 -0.42316,7.49889 -0.96841,12.63541 -1.39671,13.15773 -1.21981,1.4876 -5.9859,4.25322 -7.3297,4.25322 -4.26526,0 -7.09959,-11.71774 -4.86382,-20.10804 0.93367,-3.50383 2.5867,-6.90276 3.35706,-6.90276 1.11852,0 4.33223,3.24485 5.52044,5.57395 0.93477,1.8323 1.14111,3.0192 0.84776,4.87647 -0.44961,2.8466 -2.95095,6.95654 -4.2338,6.95654 -1.60318,0 -1.91495,-4.17431 -0.60522,-8.10324 0.38898,-1.16686 0.37428,-1.16879 -0.52455,-0.069 -1.10045,1.34646 -1.8561,5.73833 -1.29272,7.51337 0.68114,2.14609 2.61847,2.76956 4.42194,1.42308 2.23442,-1.66823 4.30249,-5.91912 4.28697,-8.81179 -0.0317,-5.90747 -5.96694,-12.44875 -9.91926,-10.9321 -1.32333,0.50781 -3.67417,6.00939 -4.46256,10.44353 -1.25435,7.05484 1.37428,17.51182 4.87268,19.38411 1.92548,1.03048 5.22621,0.23318 7.8871,-1.90517 l 2.37086,-1.90528 -0.43531,3.23395 c -0.90377,6.71428 -3.24083,14.23889 -6.3278,20.37358 -1.73521,3.44836 -3.88315,8.25754 -4.77321,10.68708 l -1.61828,4.41734 -0.36943,-11.62022 c -0.50325,-15.82937 -2.41686,-27.84182 -6.43203,-40.37638 l -1.81467,-5.66501 1.51395,-2.23092 c 2.2482,-3.31291 2.14038,-9.31596 -0.28678,-15.96653 -2.33302,-6.39263 -2.2944,-7.40491 0.3817,-10.0039 3.01381,-2.92698 4.20419,-6.00519 5.02933,-13.0054 0.72391,-6.14144 1.40635,-8.33412 2.48224,-7.97549 0.33501,0.11167 1.61564,3.1668 2.84584,6.78917 4.35331,12.81853 11.59052,26.05297 20.85314,38.13347 10.02321,13.07246 10.11283,14.66336 2.22974,39.58112 -4.39865,13.90374 -5.59309,19.8128 -5.60282,27.71768 -0.0128,10.43406 -1.05992,16.76066 -6.66727,40.28452 -5.30274,22.24601 -7.53219,35.11352 -7.99232,46.12872 -0.27902,6.67951 -0.87933,7.96019 -5.01549,10.69988 -3.30913,2.19187 -3.87507,2.25826 -3.40864,0.39987 z" id="path26" /><path style="fill:#999999;fill-opacity:0.988701;stroke-width:0.60024" d="m 233.79352,307.60624 c -1.32053,-0.43521 -4.45582,-0.81205 -6.96732,-0.83742 l -4.56635,-0.0461 -0.38563,-3.68949 c -0.21209,-2.02922 -0.38562,-6.9963 -0.38562,-11.03795 0,-6.18811 0.17099,-7.55961 1.08288,-8.68576 1.07763,-1.33081 1.11538,-1.27286 7.77744,11.93831 3.682,7.30158 6.50353,13.24729 6.27006,13.21267 -0.23348,-0.0346 -1.50493,-0.41902 -2.82546,-0.85423 z" id="path29" /></g><g id="tusk"><rect id="hitbox-tusk" fill="#000000" fill-opacity="0.01" stroke="none" pointer-events="all" /><path style="fill:#999999;fill-opacity:0.988701;stroke-width:0.60024" d="m 195.47516,314.03343 c -5.58963,-26.66855 -7.80126,-51.36652 -5.54588,-61.93259 2.01718,-9.45012 7.06624,-20.41717 10.12889,-22.00093 2.4322,-1.25773 5.88935,-0.74203 8.86925,1.32305 2.22094,1.53911 2.35735,1.81077 2.36146,4.70309 0.005,3.22119 3.34854,20.59919 5.29679,27.52649 0.92486,3.2885 1.02896,4.64095 0.55442,7.20288 -0.95904,5.17767 -0.16279,23.92947 1.2554,29.56475 0.66466,2.64105 1.37158,5.22323 1.57095,5.73816 0.28946,0.74762 -0.41444,1.09067 -3.49385,1.70277 -2.12098,0.42158 -5.16888,1.37835 -6.7731,2.12614 -3.26133,1.52025 -8.59747,6.09152 -11.02896,9.4481 l -1.60016,2.20895 z" id="path30" /><path style="fill:#999999;fill-opacity:0.988701;stroke-width:0.60024" d="m 221.21994,349.7787 c -3.78101,-3.61727 -3.93303,-3.8747 -3.93303,-6.66008 0,-3.85115 1.39184,-6.02651 5.07642,-7.93415 4.93925,-2.55722 6.09078,-1.63142 12.18515,9.79651 1.4504,2.71972 2.54675,5.41402 2.43634,5.98732 -0.32353,1.67997 -2.88618,2.55479 -7.51158,2.56427 l -4.32028,0.009 z" id="path31" /><path style="fill:#999999;fill-opacity:0.988701;stroke-width:0.60024" d="m 306.596,347.38896 c -0.0697,-0.7428 -0.1448,-8.10325 -0.16695,-16.35655 -0.0383,-14.28171 -0.11744,-15.29572 -1.63902,-21.0084 -2.08936,-7.84444 -4.10745,-13.93276 -7.33547,-22.13025 -4.67966,-11.88386 -5.76859,-25.66105 -3.41202,-43.16882 0.70157,-5.2122 1.27559,-10.66229 1.27559,-12.11129 0,-2.13123 0.30215,-2.87224 1.58155,-3.87861 3.04861,-2.39804 7.95059,-0.94096 10.43657,3.10221 2.65271,4.31432 7.26179,21.05024 10.7051,38.87103 2.74752,14.21977 3.26826,19.81055 2.94936,31.66498 -0.33262,12.36489 -1.96112,20.92771 -5.9071,31.06011 -2.08766,5.36067 -7.33486,15.30613 -8.07547,15.30613 -0.157,0 -0.34246,-0.60775 -0.41214,-1.35054 z" id="path32" /></g></svg>